<svg width="74" height="92" viewBox="0 0 74 92" fill="none" xmlns="http://www.w3.org/2000/svg">
<path d="M9 9H29V14H9V9Z" fill="#005243"/>
<path d="M9 19H29V24H9V19Z" fill="#005243"/>
<path d="M9 29H42V34H9V29Z" fill="#005243"/>
<path d="M9 39H42V44H9V39Z" fill="#005243"/>
<path fill-rule="evenodd" clip-rule="evenodd" d="M34.497 66.9565H4.26087C1.90766 66.9565 0 65.0489 0 62.6956V4.26087C0 1.90766 1.90765 0 4.26087 0H37.477L56 18.3848V23.5H57.8413L64.0081 33.5913L63.4852 60.7825L63.457 60.8026L73.3138 74.0507L49.6979 91.6212L43.2754 82.9888C41.549 80.6684 41.2679 77.7195 42.2739 75.2195L34.497 66.9565ZM3.65217 4.26087C3.65217 3.9247 3.9247 3.65217 4.26087 3.65217H34.8985V20.9713H52.3478V23.5H48.5324C45.8119 23.5 44.1315 26.4679 45.5312 28.8007L46.466 30.3587C47.8214 32.6178 50.2627 34 52.8971 34H53.5V38.7574C53.5 39.1765 53.3386 39.4828 53.1304 39.6496C52.8902 39.842 52.6154 40.0493 52.3185 40.2732L52.3177 40.2739C51.2904 41.0488 49.9987 42.0232 48.9605 43.2683C47.5324 44.9807 46.5 47.2463 46.5 50.5C46.5001 54.7758 47.5761 57.9215 49.0951 60.4072C49.7608 61.4965 50.5093 62.4516 51.2631 63.3043H4.26087C3.9247 63.3043 3.65217 63.0318 3.65217 62.6956V4.26087ZM55.6454 62.6956H54.8127C53.6804 61.5532 52.5778 60.3529 51.655 58.8428C50.424 56.8285 49.5001 54.2242 49.5 50.5C49.5 47.969 50.2728 46.3788 51.2645 45.1896C52.06 44.2356 52.9602 43.5547 53.9325 42.8192C54.2814 42.5553 54.6397 42.2843 55.0057 41.9912C56.0395 41.1633 56.5 39.9295 56.5 38.7574V31H52.8971C51.3165 31 49.8517 30.1707 49.0384 28.8152L48.1036 27.2572C47.9037 26.924 48.1437 26.5 48.5324 26.5H56.1588L60.9919 34.4087L60.5148 59.2175L55.6454 62.6956ZM49.7419 17.3191L38.5507 6.21142V17.3191H49.7419ZM47.0076 74.6031L61.397 63.8973L68.4165 73.3319L50.4168 86.7239L46.0834 80.8996C44.5999 78.9057 45.0137 76.0866 47.0076 74.6031ZM40.0502 67.75L44.2093 72.1691L50.1881 67.75H40.0502Z" fill="#005243"/>
</svg>
