<svg width="41" height="55" viewBox="0 0 41 55" fill="none" xmlns="http://www.w3.org/2000/svg">
<path d="M11.5845 0C8.63643 0 6.24654 2.40612 6.24654 5.37422V10.8624C6.24654 12.3149 7.41604 13.4924 8.85873 13.4924C10.3014 13.4924 11.4709 12.3149 11.4709 10.8624V8.23285H35.7756V46.3098H11.4709V43.0317C11.4709 41.5792 10.3014 40.4018 8.85873 40.4018C7.41604 40.4018 6.24654 41.5792 6.24654 43.0317V49.6258C6.24654 52.5939 8.63643 55 11.5845 55H35.6621C38.6101 55 41 52.5939 41 49.6258V5.37422C41 2.40612 38.6101 0 35.6621 0H11.5845Z" fill="black"/>
<path d="M5.35306 16.583H19.5351C20.8359 16.583 21.8904 17.6447 21.8904 18.9543V33.2327C21.8904 34.5423 20.8359 35.604 19.5351 35.604C18.2343 35.604 17.1798 34.5424 17.1798 33.2327V24.6792L4.37613 37.5698C4.34723 37.5958 4.31856 37.6216 4.29006 37.6473C3.69843 38.1803 3.17867 38.6486 2.38504 38.6486C1.0678 38.6486 0 37.5736 0 36.2474C0 35.5007 0.338502 34.8336 0.869436 34.3932L13.8489 21.3256H5.35306C4.05226 21.3256 2.99772 20.264 2.99772 18.9543C2.99772 17.6447 4.05226 16.583 5.35306 16.583Z" fill="black"/>
</svg>
