<svg width="83" height="66" viewBox="0 0 83 66" fill="none" xmlns="http://www.w3.org/2000/svg">
<path d="M80.2549 21.2124L71.5593 61.2124C71.4594 61.6721 71.0525 62 70.5821 62H4C3.44772 62 3 61.5523 3 61V5C3 4.44772 3.44772 4 4 4H19.9139C20.1478 4 20.3743 4.08202 20.554 4.23178L25.9978 8.76822C26.1775 8.91798 26.404 9 26.638 9H70C70.5523 9 71 9.44772 71 10V16C71 16.5523 70.5523 17 70 17H12C11.4477 17 11 17.9477 11 18.5C11 19.0523 11.4477 20 12 20H79.2778C79.83 20 80.2778 20.4477 80.2778 21C80.2778 21.0714 80.2701 21.1426 80.2549 21.2124Z" fill="black"/>
</svg>
