<svg width="46" height="61" viewBox="0 0 46 61" fill="none" xmlns="http://www.w3.org/2000/svg">
<path d="M23 46.4762C24.525 46.4762 25.9875 45.8641 27.0659 44.7746C28.1442 43.6851 28.75 42.2074 28.75 40.6667C28.75 37.4424 26.1625 34.8571 23 34.8571C21.475 34.8571 20.0125 35.4692 18.9341 36.5587C17.8558 37.6482 17.25 39.1259 17.25 40.6667C17.25 42.2074 17.8558 43.6851 18.9341 44.7746C20.0125 45.8641 21.475 46.4762 23 46.4762ZM40.25 20.3333C41.775 20.3333 43.2375 20.9454 44.3159 22.0349C45.3942 23.1244 46 24.6021 46 26.1429V55.1905C46 56.7313 45.3942 58.2089 44.3159 59.2984C43.2375 60.3879 41.775 61 40.25 61H5.75C4.22501 61 2.76247 60.3879 1.68414 59.2984C0.605802 58.2089 0 56.7313 0 55.1905V26.1429C0 22.9186 2.5875 20.3333 5.75 20.3333H8.625V14.5238C8.625 10.6719 10.1395 6.97767 12.8353 4.25393C15.5312 1.53018 19.1875 0 23 0C24.8878 0 26.757 0.375669 28.5011 1.10556C30.2451 1.83545 31.8298 2.90526 33.1647 4.25393C34.4995 5.60259 35.5584 7.20368 36.2808 8.96579C37.0032 10.7279 37.375 12.6165 37.375 14.5238V20.3333H40.25ZM23 5.80952C20.7125 5.80952 18.5187 6.72763 16.9012 8.36188C15.2837 9.99612 14.375 12.2126 14.375 14.5238V20.3333H31.625V14.5238C31.625 12.2126 30.7163 9.99612 29.0988 8.36188C27.4813 6.72763 25.2875 5.80952 23 5.80952Z" fill="black"/>
</svg>
