<svg width="190" height="163" viewBox="0 0 190 163" fill="none" xmlns="http://www.w3.org/2000/svg">
<g clip-path="url(#clip0)">
<path opacity="0.28" d="M51.9345 5.82064C57.641 0.718 66.5982 -0.328042 74.7505 0.0782067C100.36 1.35583 123.479 13.7768 143.476 27.8268C150.704 32.9118 157.84 38.3932 162.541 45.3975C172.113 59.6555 169.269 79.4066 155.967 91.1506C151.442 95.1483 145.955 98.2158 140.325 100.926C130.31 105.756 119.505 109.632 108.139 110.739C100.034 111.524 91.8287 110.886 83.7721 109.789C61.259 106.718 39.162 99.935 20.642 88.3324C12.519 83.2434 4.86286 76.9162 1.51441 68.6833C-1.83404 60.4503 0.309046 50.0154 8.60398 45.1424C12.0345 43.1269 16.1351 42.2182 20.1516 41.3625C26.0612 40.1045 32.0685 38.8642 37.4018 36.307C42.9109 33.6654 49.4339 28.5549 48.3419 22.7084C47.1736 16.4341 46.234 10.9233 51.9345 5.82064Z" fill="#2C74F9"/>
<path d="M75.3831 54.8297V77.9035C75.3823 79.2608 75.6479 80.605 76.1646 81.8591C76.6814 83.1132 77.4392 84.2527 78.3946 85.2123C79.3501 86.172 80.4845 86.9331 81.733 87.4519C82.9815 87.9708 84.3195 88.2374 85.6706 88.2363H99.3848C100.599 88.2371 101.801 87.9973 102.923 87.5307C104.045 87.0641 105.064 86.3799 105.923 85.5171C106.781 84.6543 107.461 83.63 107.925 82.5027C108.389 81.3754 108.627 80.1673 108.625 78.9476V54.8297C108.625 50.4013 106.874 46.1543 103.757 43.0229C100.64 39.8915 96.4124 38.1323 92.0042 38.1323C87.596 38.1323 83.3683 39.8915 80.2513 43.0229C77.1342 46.1543 75.3831 50.4013 75.3831 54.8297V54.8297Z" fill="#65617D"/>
<path opacity="0.1" d="M75.3831 54.8297V77.9035C75.3823 79.2608 75.6479 80.605 76.1646 81.8591C76.6814 83.1132 77.4392 84.2527 78.3946 85.2123C79.3501 86.172 80.4845 86.9331 81.733 87.4519C82.9815 87.9708 84.3195 88.2374 85.6706 88.2363H99.3848C100.599 88.2371 101.801 87.9973 102.923 87.5307C104.045 87.0641 105.064 86.3799 105.923 85.5171C106.781 84.6543 107.461 83.63 107.925 82.5027C108.389 81.3754 108.627 80.1673 108.625 78.9476V54.8297C108.625 50.4013 106.874 46.1543 103.757 43.0229C100.64 39.8915 96.4124 38.1323 92.0042 38.1323C87.596 38.1323 83.3683 39.8915 80.2513 43.0229C77.1342 46.1543 75.3831 50.4013 75.3831 54.8297V54.8297Z" fill="black"/>
<path d="M75.8773 55.0771V77.4659C75.8768 78.7827 76.1346 80.0867 76.6361 81.3033C77.1375 82.5199 77.8727 83.6253 78.7996 84.5563C79.7266 85.4873 80.8271 86.2257 82.0382 86.7292C83.2494 87.2327 84.5474 87.4914 85.8582 87.4907H99.166C100.343 87.4914 101.509 87.2591 102.597 86.8069C103.685 86.3547 104.674 85.6915 105.506 84.8552C106.339 84.019 106.999 83.0261 107.45 81.9333C107.9 80.8405 108.132 79.6692 108.131 78.4865V55.0771C108.131 50.7804 106.432 46.6596 103.408 43.6213C100.383 40.5831 96.2813 38.8762 92.0042 38.8762C87.7271 38.8762 83.6251 40.5831 80.6008 43.6213C77.5764 46.6596 75.8773 50.7804 75.8773 55.0771V55.0771Z" fill="#65617D"/>
<path opacity="0.1" d="M79.8822 58.386V77.0067C79.8743 78.6915 80.341 80.3441 81.2282 81.7738C82.584 83.9326 84.8345 85.3437 87.384 85.3437H97.3883C99.8185 85.3437 101.948 83.9169 103.132 81.7738C103.791 80.572 104.133 79.2208 104.126 77.8487V58.386C104.126 50.946 98.6991 44.9131 92.0042 44.9131C88.6577 44.9131 85.6277 46.4203 83.4338 48.8598C81.118 51.4847 79.8526 54.8786 79.8822 58.386Z" fill="black"/>
<path d="M113.396 124.193C114.409 124.193 115.23 123.367 115.23 122.35C115.23 121.332 114.409 120.507 113.396 120.507C112.383 120.507 111.562 121.332 111.562 122.35C111.562 123.367 112.383 124.193 113.396 124.193Z" fill="#333F4F"/>
<path d="M110.114 131.403C111.127 131.403 111.948 130.578 111.948 129.56C111.948 128.542 111.127 127.717 110.114 127.717C109.101 127.717 108.28 128.542 108.28 129.56C108.28 130.578 109.101 131.403 110.114 131.403Z" fill="#333F4F"/>
<path d="M77.3855 132.708C78.3986 132.708 79.2199 131.883 79.2199 130.865C79.2199 129.848 78.3986 129.022 77.3855 129.022C76.3724 129.022 75.5511 129.848 75.5511 130.865C75.5511 131.883 76.3724 132.708 77.3855 132.708Z" fill="#333F4F"/>
<path d="M70.0732 123.301C71.0863 123.301 71.9076 122.476 71.9076 121.459C71.9076 120.441 71.0863 119.616 70.0732 119.616C69.0601 119.616 68.2388 120.441 68.2388 121.459C68.2388 122.476 69.0601 123.301 70.0732 123.301Z" fill="#333F4F"/>
<path d="M93.0689 89.8044H90.7715V104.223H93.0689V89.8044Z" fill="#333F4F"/>
<path opacity="0.1" d="M93.0689 101.89H90.7715V104.225H93.0689V101.89Z" fill="#333F4F"/>
<path d="M90.328 118.436H93.5123V102.438H90.328V118.436Z" fill="#333F4F"/>
<path d="M70.4717 118.332L91.3185 117.475V120.838H67.1252C67.3667 120.131 67.8155 119.513 68.4126 119.065C69.0098 118.618 69.7275 118.363 70.4717 118.332V118.332Z" fill="#333F4F"/>
<path d="M112.167 118.332L91.3185 117.475V120.838H115.514C115.272 120.131 114.823 119.513 114.226 119.065C113.629 118.618 112.911 118.363 112.167 118.332V118.332Z" fill="#333F4F"/>
<path d="M93.5143 117.818L110.157 126.061C110.861 126.411 111.454 126.952 111.869 127.623C112.283 128.294 112.502 129.069 112.501 129.858V130.108L93.063 121.594L90.328 121.398L74.164 131.766C74.0613 131 74.1691 130.22 74.476 129.511C74.7828 128.802 75.2769 128.192 75.9047 127.745L90.328 117.484L93.5143 117.818Z" fill="#333F4F"/>
<path opacity="0.1" d="M90.7734 89.8044V91.3588C91.1732 91.3745 91.5829 91.3823 92.0022 91.3823C92.3636 91.3823 92.7192 91.3823 93.0689 91.3647V89.8044H90.7734Z" fill="#333F4F"/>
<path d="M92.0022 90.835C96.6837 90.835 100.479 89.7199 100.479 88.3445C100.479 86.969 96.6837 85.854 92.0022 85.854C87.3207 85.854 83.5256 86.969 83.5256 88.3445C83.5256 89.7199 87.3207 90.835 92.0022 90.835Z" fill="#333F4F"/>
<path d="M83.5999 88.3425C83.6078 88.481 83.6439 88.6164 83.7061 88.7403C83.7683 88.8642 83.8551 88.974 83.9613 89.0628C84.0453 89.1442 84.1354 89.219 84.2309 89.2865C85.4929 90.1932 88.5288 90.833 92.0745 90.833C95.6203 90.833 98.6816 90.1873 99.9377 89.2728C100 89.2293 100.06 89.1821 100.117 89.1315C100.242 89.0401 100.346 88.9226 100.421 88.787C100.496 88.6515 100.541 88.5012 100.553 88.3464C100.553 86.9727 96.7592 85.856 92.0745 85.856C87.3898 85.856 83.5999 86.9668 83.5999 88.3425Z" fill="#333F4F"/>
<path opacity="0.1" d="M83.5999 88.3425C83.6078 88.481 83.6439 88.6164 83.7061 88.7403C83.7683 88.8642 83.8551 88.974 83.9613 89.0628C84.0453 89.1442 84.1354 89.219 84.2309 89.2865C85.4929 90.1932 88.5288 90.833 92.0745 90.833C95.6203 90.833 98.6816 90.1873 99.9377 89.2728C100 89.2293 100.06 89.1821 100.117 89.1315C100.242 89.0401 100.346 88.9226 100.421 88.787C100.496 88.6515 100.541 88.5012 100.553 88.3464C100.553 86.9727 96.7592 85.856 92.0745 85.856C87.3898 85.856 83.5999 86.9668 83.5999 88.3425Z" fill="#333F4F"/>
<path opacity="0.1" d="M83.5276 88.3425C83.5354 88.481 83.5715 88.6165 83.6337 88.7404C83.6958 88.8643 83.7827 88.974 83.889 89.0627C84.9693 88.7939 85.7156 88.5682 85.7156 88.5682C85.7156 88.5682 93.1861 88.9882 100.045 89.1314C100.17 89.0402 100.274 88.9227 100.349 88.7871C100.424 88.6515 100.469 88.5012 100.481 88.3464C100.481 86.9726 96.6869 85.856 92.0022 85.856C87.3175 85.856 83.5276 86.9667 83.5276 88.3425Z" fill="#333F4F"/>
<path opacity="0.1" d="M77.6668 83.1968C78.5855 84.5238 79.8105 85.6076 81.237 86.3554C82.6636 87.1032 84.2491 87.4928 85.8582 87.4909H99.166C100.699 87.492 102.207 87.0978 103.545 86.346C104.883 85.5941 106.007 84.5098 106.808 83.1968H77.6668Z" fill="#333F4F"/>
<path opacity="0.1" d="M83.5999 88.3425C83.6078 88.481 83.6439 88.6164 83.7061 88.7403C83.7683 88.8642 83.8551 88.974 83.9613 89.0627C84.0453 89.1442 84.1354 89.2189 84.2309 89.2865C89.4618 89.6057 94.7073 89.6011 99.9377 89.2727C100 89.2293 100.06 89.1821 100.117 89.1314C100.242 89.0401 100.346 88.9226 100.421 88.787C100.496 88.6515 100.541 88.5011 100.553 88.3464C100.553 86.9726 96.7592 85.856 92.0745 85.856C87.3898 85.856 83.5999 86.9667 83.5999 88.3425Z" fill="#333F4F"/>
<path d="M75.9809 88.1148C86.6688 89.4709 97.4841 89.4709 108.172 88.1148C108.469 88.116 108.763 88.0585 109.037 87.9453C109.311 87.8322 109.561 87.6657 109.771 87.4555C109.981 87.2452 110.148 86.9953 110.262 86.7201C110.376 86.445 110.434 86.1499 110.434 85.8519V85.8519C110.434 85.2518 110.197 84.6762 109.775 84.2519C109.352 83.8275 108.779 83.5891 108.182 83.5891H75.9809C75.3835 83.5891 74.8105 83.8275 74.3881 84.2519C73.9657 84.6762 73.7284 85.2518 73.7284 85.8519V85.8519C73.7284 86.4521 73.9657 87.0276 74.3881 87.452C74.8105 87.8764 75.3835 88.1148 75.9809 88.1148Z" fill="#333F4F"/>
<path d="M105.65 112.76C105.65 112.76 107.871 115.045 109.387 115.263C110.903 115.481 112.15 120.377 110.038 120.758C107.926 121.139 103.862 119.616 103.267 118.962C102.671 118.309 100.504 114.448 100.504 114.448L105.65 112.76Z" fill="#65617D"/>
<path d="M93.4088 88.3837C93.4088 88.3837 98.8261 98.7755 98.9336 100.19C99.041 101.605 103.646 107.601 103.646 107.601L97.904 114.882C97.904 114.882 97.146 113.031 95.8469 112.378C94.5478 111.724 94.8174 110.256 94.8174 110.256C94.8174 110.256 93.4635 110.256 92.4887 108.624C91.5138 106.991 90.3221 105.36 90.3221 104.657C90.3221 103.955 83.172 96.5499 83.172 96.5499L83.7131 88.6605L85.1764 86.1582L93.4088 88.3837Z" fill="#3F3D56"/>
<path opacity="0.1" d="M107.492 88.9823L107.539 89.0235C108.196 89.6123 115.563 96.1711 115.563 96.3262C115.563 96.4812 118.215 100.897 114.912 104.706C111.608 108.516 104.025 114.772 104.025 114.772C104.025 114.772 100.721 117.167 100.287 117.657C99.8537 118.148 93.3014 117.657 97.2007 113.194C101.1 108.731 104.783 103.727 104.783 103.727C104.783 103.727 98.283 102.157 97.8513 101.062C97.4195 99.9667 106.408 86.3701 106.408 86.3701L107.492 88.9823Z" fill="black"/>
<path d="M107.709 88.9823L107.756 89.0235C108.412 89.6123 115.779 96.1711 115.779 96.3262C115.779 96.4812 118.432 100.897 115.129 104.706C111.825 108.516 104.241 114.772 104.241 114.772C104.241 114.772 100.938 117.167 100.504 117.657C100.071 118.148 93.5163 117.657 97.4176 113.194C101.319 108.731 104.999 103.727 104.999 103.727C104.999 103.727 98.4999 102.157 98.0662 101.062C97.6325 99.9667 89.0797 86.641 89.0797 86.641L106.629 86.3701L107.709 88.9823Z" fill="#3F3D56"/>
<path d="M88.9683 59.7148L89.6169 65.6456C89.6169 65.6456 96.2786 68.3127 96.4427 68.2578C96.6068 68.2028 100.883 64.3327 100.18 61.7814C99.8263 60.4998 99.6642 58.7217 99.5938 57.2675C99.5235 55.8132 99.5333 54.7063 99.5333 54.7063C99.5333 54.7063 89.8376 51.2228 90.705 53.6171C91.0196 54.4865 90.8769 55.5287 90.5683 56.5021C90.1805 57.6401 89.6424 58.7207 88.9683 59.7148V59.7148Z" fill="#FBBEBE"/>
<path opacity="0.1" d="M90.5644 56.4982C90.623 56.5669 90.6836 56.6316 90.7441 56.6944C91.8732 57.8965 93.4143 58.6234 95.0562 58.7283C96.698 58.8332 98.3183 58.3083 99.59 57.2597C99.5157 55.8191 99.5294 54.6985 99.5294 54.6985C99.5294 54.6985 89.8337 51.215 90.7011 53.6093C91.0157 54.4826 90.8731 55.5248 90.5644 56.4982Z" fill="black"/>
<path d="M88.9683 51.9978C88.9687 53.2887 89.35 54.5504 90.0642 55.6235C90.7783 56.6967 91.7931 57.533 92.9803 58.0268C94.1675 58.5206 95.4738 58.6497 96.734 58.3978C97.9942 58.1459 99.1518 57.5242 100.06 56.6115C100.969 55.6987 101.588 54.5358 101.839 53.2698C102.089 52.0038 101.961 50.6915 101.469 49.4988C100.978 48.3062 100.145 47.2867 99.077 46.5693C98.0088 45.8519 96.7528 45.4688 95.4679 45.4684C94.6128 45.4629 93.7652 45.6281 92.9742 45.9543C92.1831 46.2805 91.4645 46.7612 90.8598 47.3686C90.2552 47.976 89.7766 48.698 89.4519 49.4927C89.1272 50.2873 88.9628 51.1388 88.9683 51.9978V51.9978Z" fill="#FBBEBE"/>
<path opacity="0.1" d="M96.9839 65.8654C96.9839 65.8654 99.5235 60.1975 100.397 60.1975C101.27 60.1975 102.62 89.5161 102.62 89.5161L89.3512 89.7242L88.8081 74.3318L91.5138 60.696C91.5138 60.696 93.9499 66.0754 96.9839 65.8654Z" fill="black"/>
<path opacity="0.1" d="M96.9839 66.3009C96.9839 66.3009 99.5235 60.6331 100.397 60.6331C101.27 60.6331 102.62 89.9497 102.62 89.9497L87.5637 90.1793L88.8081 74.7674L91.5177 61.1217C91.5177 61.1217 93.9499 66.5109 96.9839 66.3009Z" fill="black"/>
<path d="M96.9839 66.0831C96.9839 66.0831 99.5235 60.4153 100.397 60.4153C101.27 60.4153 102.62 89.7417 102.62 89.7417L87.5637 89.9713L88.8081 74.5594L91.5177 60.9138C91.5177 60.9138 93.9499 66.2931 96.9839 66.0831Z" fill="#65617D"/>
<path opacity="0.1" d="M99.4532 58.6352C99.4532 58.6352 99.9084 57.966 100.559 58.1838C101.209 58.4017 101.696 57.8031 102.346 58.4017C102.997 59.0003 105.595 59.8167 106.084 59.5439C106.572 59.2711 108.303 60.4702 108.684 61.1767C109.065 61.8832 110.307 63.7889 110.307 63.7889C110.307 63.7889 111.392 65.094 111.229 65.8025C111.067 66.5109 111.608 67.3254 112.257 67.6512C112.906 67.977 114.211 71.2427 114.211 71.2427C114.211 71.2427 113.857 75.6113 115.318 76.3708C116.78 77.1303 115.697 80.4529 115.697 80.4529L108.789 78.8064L106.836 74.3435C106.836 74.3435 107.594 87.4043 108.514 88.5995C109.434 89.7947 109.543 90.562 109.543 90.562C109.543 90.562 105.968 91.3235 105.21 91.9751C104.452 92.6267 102.448 91.8122 102.448 91.8122L100.494 74.4554C100.494 74.4554 99.7912 71.1897 99.7912 69.5038C99.7912 67.818 99.4532 58.6352 99.4532 58.6352Z" fill="black"/>
<path d="M99.6701 58.6352C99.6701 58.6352 100.125 57.966 100.776 58.1838C101.426 58.4017 101.913 57.8031 102.563 58.4017C103.214 59.0003 105.812 59.8167 106.301 59.5439C106.789 59.2711 108.52 60.4702 108.899 61.1767C109.278 61.8832 110.524 63.7889 110.524 63.7889C110.524 63.7889 111.608 65.094 111.446 65.8025C111.284 66.5109 111.825 67.3254 112.474 67.6512C113.122 67.977 114.427 71.2427 114.427 71.2427C114.427 71.2427 114.078 75.6093 115.541 76.3708C115.906 76.5671 116.113 76.9851 116.217 77.515C116.637 79.6463 114.896 81.5971 112.734 81.5304L109.022 79.9839L107.068 74.3435C107.068 74.3435 107.826 87.4043 108.746 88.5995C109.667 89.7947 109.776 90.562 109.776 90.562C109.776 90.562 106.201 91.3235 105.443 91.9751C104.685 92.6267 102.681 91.8122 102.681 91.8122L100.727 74.4554C100.727 74.4554 100.024 71.1897 100.024 69.5038C100.024 67.818 99.6701 58.6352 99.6701 58.6352Z" fill="#2C74F9"/>
<path opacity="0.1" d="M111.606 68.0869C111.606 68.0869 110.956 69.8827 109.168 69.7198C107.381 69.5569 111.606 68.0869 111.606 68.0869Z" fill="black"/>
<path opacity="0.1" d="M109.876 65.3667C109.876 65.3667 108.684 65.5845 108.25 66.6168C107.817 67.6491 109.876 65.3667 109.876 65.3667Z" fill="black"/>
<path opacity="0.1" d="M106.527 63.5161C106.527 63.734 105.767 67.5433 106.527 69.1212C107.287 70.6991 107.176 72.5498 107.176 72.5498L106.527 63.5161Z" fill="black"/>
<path opacity="0.1" d="M90.5292 57.3242C90.5292 57.3242 90.1053 56.8238 89.6716 56.8787C89.2379 56.9337 88.9683 57.2045 88.4252 57.4224C87.8821 57.6402 86.5849 57.6952 86.5849 57.858C86.5849 58.0209 85.446 58.6745 84.688 58.8393C83.93 59.0042 81.5466 60.6351 80.9508 63.7908C80.355 66.9466 79.3254 67.871 79.3254 67.871L85.067 70.7049C85.067 70.7049 80.6265 89.6397 80.0854 90.9997C79.5442 92.3598 79.4993 100.42 79.4993 100.42C79.4993 100.42 83.0157 101.99 83.9398 102.487C84.8638 102.983 84.4809 97.8078 86.3779 94.8149C88.2748 91.822 90.4394 87.4691 90.4394 87.4691L93.7331 78.1626C93.7331 78.1626 95.8469 65.7573 94.0594 63.471C92.2718 61.1846 90.3671 58.1446 90.5292 57.3242Z" fill="black"/>
<path d="M90.3124 57.3242C90.3124 57.3242 89.8884 56.8238 89.4547 56.8787C89.0211 56.9337 88.7515 57.2045 88.2084 57.4224C87.6653 57.6402 86.3681 57.6952 86.3681 57.858C86.3681 58.0209 85.2311 58.6745 84.4711 58.8393C83.7112 59.0042 81.3259 60.6331 80.7398 63.7889C80.1537 66.9447 79.1164 67.869 79.1164 67.869L84.8423 70.7049C84.8423 70.7049 80.4018 89.6397 79.8607 90.9997C79.3195 92.3598 79.2746 100.42 79.2746 100.42C79.2746 100.42 82.7911 101.99 83.7151 102.487C84.6392 102.983 84.2563 97.7882 86.1512 94.8032C88.0462 91.8181 90.2127 87.4573 90.2127 87.4573L93.5163 78.1626C93.5163 78.1626 95.63 65.7573 93.8425 63.471C92.055 61.1846 90.1502 58.1446 90.3124 57.3242Z" fill="#2C74F9"/>
<path opacity="0.1" d="M78.5674 81.1457C78.7276 81.1712 78.9327 81.1967 79.1691 81.2183C80.9039 81.3772 84.309 81.4145 84.309 81.4145C84.309 81.4145 86.8487 76.3531 89.021 76.5081C89.021 76.5081 87.0167 74.2237 86.2059 74.4965C86.0692 74.5417 85.9832 74.4416 85.9422 74.2453C85.7253 73.264 86.4755 69.9277 86.4755 69.9277L87.5051 65.4138L81.5466 66.8818C81.0055 66.9917 79.3254 67.8631 79.3254 67.8631C79.3254 67.8631 79.2727 70.2024 78.839 70.748C78.4053 71.2936 77.9188 73.9038 77.9716 74.5554C78.0243 75.207 77.3757 78.2568 78.0263 79.0693C78.6768 79.8818 77.2233 80.9278 78.5674 81.1457Z" fill="black"/>
<path d="M100.829 116.786C100.829 116.786 101.155 118.581 100.776 119.73C100.397 120.878 100.45 123.376 100.721 124.243C100.993 125.111 101.913 126.31 99.4219 126.854C96.9311 127.397 95.251 126.909 95.1416 126.473C95.0322 126.037 94.493 124.296 94.9248 123.317C95.3565 122.338 95.5109 119.785 94.7079 118.311C93.905 116.837 94.4383 114.556 95.1963 114.285C95.9543 114.015 97.2554 113.414 97.2554 113.414C97.2554 113.414 95.8469 115.965 97.146 116.517C98.4451 117.068 100.829 116.786 100.829 116.786Z" fill="#65617D"/>
<path opacity="0.1" d="M88.9683 51.998C88.9647 53.6659 89.6007 55.2712 90.7441 56.4805C90.7501 56.4704 90.7553 56.4599 90.7597 56.4491C90.9551 56.035 91.1368 55.6052 91.1212 55.1518C91.1036 54.6043 90.789 54.1097 90.6875 53.568C90.5605 52.8851 90.7832 52.1943 91.002 51.5309C91.1622 51.0481 91.4728 50.4613 91.9788 50.5202C92.0764 50.5454 92.1769 50.5573 92.2777 50.5555C92.5453 50.5143 92.6 50.163 92.6313 49.8922C92.7124 49.256 92.9936 48.6624 93.4339 48.1979C93.8742 47.7333 94.4506 47.4221 95.0791 47.3095C95.2216 47.2777 95.3701 47.2879 95.507 47.3389C95.7023 47.4233 95.798 47.6274 95.968 47.7452C96.517 48.1279 97.2163 47.3958 97.8845 47.4527C98.453 47.4998 98.7987 48.0827 99.0332 48.6048C99.2676 49.1268 99.5587 49.7214 100.115 49.8431C100.159 49.8561 100.205 49.8602 100.25 49.8552C100.296 49.8501 100.339 49.836 100.379 49.8137C100.551 49.6861 100.432 49.4212 100.344 49.2249C100.115 48.7068 100.268 48.2966 100.539 47.9277C99.6988 46.8703 98.552 46.1014 97.2574 45.7275C95.9629 45.3536 94.5847 45.3931 93.3135 45.8406C92.0422 46.288 90.9409 47.1213 90.1617 48.2251C89.3826 49.329 88.9642 50.6488 88.9644 52.0019L88.9683 51.998Z" fill="black"/>
<path d="M100.34 49.0029C100.428 49.1991 100.549 49.47 100.373 49.5916C100.334 49.6144 100.291 49.6288 100.246 49.6339C100.2 49.639 100.155 49.6346 100.112 49.6211C99.5548 49.5014 99.2617 48.9047 99.0273 48.3827C98.7929 47.8607 98.4412 47.2778 97.8806 47.2307C97.2124 47.1738 96.513 47.9058 95.9621 47.5231C95.7941 47.4053 95.6906 47.2012 95.503 47.1169C95.366 47.0665 95.2175 47.057 95.0752 47.0894C94.4466 47.2015 93.87 47.5123 93.4294 47.9765C92.9887 48.4407 92.7071 49.034 92.6254 49.6701C92.5981 49.939 92.5414 50.2923 92.2738 50.3335C92.173 50.3353 92.0725 50.3234 91.9749 50.2982C91.4708 50.2393 91.1622 50.8241 90.9981 51.3069C90.7793 51.9683 90.5566 52.663 90.6836 53.346C90.7851 53.8877 91.0997 54.3822 91.1172 54.9317C91.1309 55.3831 90.9414 55.8149 90.7558 56.227C90.5702 56.6392 90.2635 57.122 89.8181 57.0631C89.4508 57.016 89.2496 56.6254 89.0738 56.2977C88.898 55.9699 88.5815 55.6206 88.2259 55.7227C88.0658 55.7698 87.9016 55.9052 87.7571 55.8227C87.7193 55.7947 87.6876 55.7592 87.6641 55.7183C87.6405 55.6775 87.6257 55.6322 87.6203 55.5853C87.4465 54.8258 87.6965 53.9701 87.3273 53.2832C87.044 52.7553 86.4697 52.4687 86.0028 52.0939C85.6051 51.7747 85.2755 51.3784 85.0335 50.9285C84.7915 50.4786 84.642 49.9845 84.5941 49.4754C84.5462 48.9663 84.6007 48.4528 84.7544 47.9653C84.9082 47.4778 85.158 47.0264 85.489 46.638C85.9891 46.0492 86.708 45.5311 86.749 44.7598C86.7783 44.1711 86.3837 43.6314 86.3798 43.0426C86.3759 42.4538 86.7412 41.9593 87.1612 41.5687C87.764 41.0145 88.4918 40.6156 89.282 40.4064C90.0721 40.1972 90.9011 40.1839 91.6975 40.3676C92.1175 40.4697 92.5395 40.6267 92.9673 40.5737C93.4655 40.5109 93.8796 40.1812 94.3348 39.9496C95.0798 39.5984 95.9246 39.5239 96.7191 39.7395C97.5135 39.9552 98.2061 40.4468 98.6737 41.1271C99.1856 41.9298 99.3868 42.9759 100.153 43.5391C100.655 43.9081 101.377 44.0474 101.655 44.6067C101.821 44.9443 101.774 45.3427 101.723 45.7136C101.645 46.3238 101.352 46.8859 100.899 47.2994C100.428 47.7861 100.028 48.2944 100.34 49.0029Z" fill="#512E4E"/>
<g opacity="0.1">
<path opacity="0.1" d="M86.5166 43.7121C86.4661 43.5644 86.4275 43.4128 86.4013 43.2588C86.452 43.4065 86.4906 43.5581 86.5166 43.7121V43.7121Z" fill="black"/>
<path opacity="0.1" d="M100.231 48.5281C100.203 48.4283 100.167 48.3311 100.123 48.2376C99.8107 47.5272 100.211 47.0209 100.678 46.5459C101.13 46.1318 101.422 45.5699 101.501 44.9602C101.527 44.7939 101.543 44.6261 101.547 44.4578C101.586 44.507 101.62 44.5596 101.649 44.6148C101.815 44.9523 101.768 45.3507 101.717 45.7216C101.639 46.3318 101.347 46.8939 100.893 47.3074C100.537 47.6744 100.221 48.0551 100.231 48.5281Z" fill="black"/>
<path opacity="0.1" d="M88.013 54.9655C88.3686 54.8615 88.685 55.2148 88.8609 55.5406C89.0367 55.8663 89.2379 56.2589 89.6052 56.306C90.0506 56.3629 90.3573 55.8801 90.5429 55.4699C90.7285 55.0597 90.92 54.626 90.9043 54.1746C90.902 54.1201 90.8968 54.0657 90.8887 54.0117C91.0157 54.3051 91.0942 54.6173 91.1212 54.9361C91.1348 55.3875 90.9453 55.8192 90.7598 56.2314C90.5742 56.6435 90.2674 57.1263 89.822 57.0674C89.4548 57.0203 89.2535 56.6298 89.0777 56.302C88.9019 55.9743 88.5854 55.6249 88.2299 55.727C88.0697 55.7741 87.9056 55.9095 87.761 55.8271C87.7232 55.7991 87.6915 55.7635 87.668 55.7227C87.6445 55.6818 87.6296 55.6365 87.6242 55.5896C87.5879 55.4191 87.5663 55.2458 87.5598 55.0715C87.7004 55.1343 87.8606 55.0048 88.013 54.9655Z" fill="black"/>
<path opacity="0.1" d="M85.7898 51.3366C86.2567 51.7115 86.833 51.998 87.1163 52.5259C87.2305 52.7554 87.297 53.0058 87.3117 53.2619C87.0245 52.7516 86.4619 52.467 86.0028 52.0981C85.2819 51.5145 84.7961 50.6883 84.6353 49.7725C84.8791 50.3853 85.2769 50.9242 85.7898 51.3366Z" fill="black"/>
<path opacity="0.1" d="M90.6757 53.2599C90.5892 53.0422 90.5206 52.8177 90.4706 52.5887C90.3436 51.9057 90.5663 51.2149 90.7851 50.5496C90.9453 50.0668 91.256 49.482 91.7619 49.5408C91.8596 49.566 91.9601 49.5779 92.0608 49.5762C92.3285 49.535 92.3851 49.1837 92.4125 48.9109C92.4951 48.2753 92.7772 47.6827 93.2176 47.219C93.6581 46.7554 94.2342 46.4447 94.8623 46.3321C95.0045 46.2986 95.1533 46.3082 95.2901 46.3595C95.4855 46.4439 95.5812 46.648 95.7492 46.7658C96.3001 47.1583 96.9995 46.4165 97.6676 46.4734C98.2342 46.5205 98.5819 47.1033 98.8164 47.6254C99.0508 48.1474 99.3438 48.7421 99.8986 48.8638C99.9419 48.8773 99.9876 48.8817 100.033 48.8766C100.078 48.8715 100.121 48.8571 100.16 48.8343C100.186 48.8154 100.207 48.791 100.222 48.7628C100.237 48.7346 100.245 48.7033 100.246 48.6714C100.264 48.7859 100.297 48.8975 100.344 49.0031C100.432 49.1994 100.553 49.4702 100.377 49.5919C100.338 49.6147 100.295 49.6291 100.249 49.6341C100.204 49.6392 100.159 49.6348 100.115 49.6213C99.5587 49.5016 99.2657 48.905 99.0312 48.3829C98.7968 47.8609 98.4452 47.278 97.8845 47.2309C97.2164 47.174 96.517 47.906 95.9661 47.5233C95.7981 47.4056 95.6945 47.2015 95.507 47.1171C95.37 47.0668 95.2214 47.0572 95.0791 47.0896C94.4505 47.2018 93.8739 47.5125 93.4333 47.9767C92.9927 48.4409 92.711 49.0342 92.6293 49.6704C92.602 49.9392 92.5453 50.2925 92.2777 50.3337C92.1769 50.3355 92.0764 50.3237 91.9788 50.2984C91.4748 50.2395 91.1661 50.8244 91.002 51.3071C90.793 51.943 90.5839 52.6064 90.6757 53.2599Z" fill="black"/>
</g>
<path opacity="0.1" d="M79.1769 81.2183C80.9117 81.3773 84.3168 81.4146 84.3168 81.4146C84.3168 81.4146 86.8565 76.3531 89.0289 76.5082C89.0289 76.5082 87.0245 74.2238 86.2137 74.4966C86.077 74.5417 85.991 74.4416 85.95 74.2454C83.8284 74.8969 79.7845 76.4886 79.3879 79.2832C79.2746 80.0447 79.2062 80.6806 79.1769 81.2183Z" fill="black"/>
<path d="M78.9523 81.2183C80.687 81.3773 84.0921 81.4146 84.0921 81.4146C84.0921 81.4146 86.6318 76.3531 88.8042 76.5082C88.8042 76.5082 86.8018 74.2238 85.9891 74.4966C85.8523 74.5417 85.7683 74.4416 85.7254 74.2454C83.6038 74.8969 79.5598 76.4886 79.1632 79.2832C79.0578 80.0447 78.9913 80.6806 78.9523 81.2183Z" fill="#2C74F9"/>
<path opacity="0.1" d="M94.1668 95.7825C94.1668 95.7825 89.2828 94.5854 88.5346 95.2389C87.7864 95.8924 94.1668 95.7825 94.1668 95.7825Z" fill="black"/>
<path opacity="0.1" d="M108.141 100.463C108.141 100.463 106.084 101.66 105.867 102.64C105.65 103.619 108.141 100.463 108.141 100.463Z" fill="black"/>
<path opacity="0.1" d="M99.9084 122.517C99.9084 122.517 97.0913 122.081 96.3705 122.552C95.6496 123.023 99.9084 122.517 99.9084 122.517Z" fill="black"/>
<path d="M71.767 160.5C71.767 160.5 82.6836 159.911 85.3444 158.341C88.0052 156.771 91.7717 156.771 91.7912 156.771L135.259 147.245L153.329 142.927L156.553 142.501L145.906 130.263L145.581 130.121L129.886 123.302C129.886 123.302 122.853 123.694 121.464 128.298C121.369 128.622 121.304 128.955 121.269 129.291C121.123 130.727 121.519 132.164 122.379 133.32C122.933 134.084 123.615 135.163 123.83 136.117C123.951 136.655 123.924 137.151 123.635 137.53C123.049 138.115 122.402 138.634 121.705 139.078C117.877 141.63 108.203 145.834 91.3028 139.394C91.3028 139.394 84.0746 132.231 78.6045 135.273C73.1345 138.315 71.767 160.5 71.767 160.5Z" fill="#E1DEE5"/>
<path opacity="0.1" d="M123.822 136.125C123.943 136.663 123.916 137.159 123.627 137.538C123.041 138.122 122.394 138.642 121.697 139.086L154.599 141.553L145.581 130.121L129.886 123.302C129.886 123.302 122.853 123.694 121.464 128.298C121.369 128.622 121.304 128.955 121.269 129.291C121.123 130.727 121.519 132.164 122.379 133.32C122.926 134.096 123.607 135.171 123.822 136.125Z" fill="black"/>
<path d="M155.967 91.1233L129.007 91.7121V124.132L154.599 141.561L160.753 135.87L159.483 117.029L160.753 99.4642L155.967 91.1233Z" fill="#65617D"/>
<path d="M171.302 85.8166L139.826 76.0804C139.257 75.9044 138.661 75.8378 138.068 75.8841L62.8742 81.3989C56.4426 81.8414 50.2523 84.0348 44.9677 87.7439C40.1013 91.1921 35.2818 96.4851 33.0508 104.498C31.4423 110.413 31.5596 116.667 33.3888 122.516L40.0212 144.105C40.0212 144.105 35.0395 97.1995 84.7583 94.8444L171.302 85.8166Z" fill="#D9D6DF"/>
<path opacity="0.1" d="M122.371 133.328C122.926 134.092 123.607 135.171 123.822 136.125C124.674 135.134 124.858 134.015 123.627 133.122C122.086 131.996 121.572 130.041 121.456 128.306C121.361 128.63 121.296 128.963 121.261 129.299C121.115 130.734 121.511 132.172 122.371 133.328Z" fill="white"/>
<path d="M43.44 138.609L47.1518 151.268L55.5522 159.511L66.1016 161.669L82.5117 158.725V100.143C82.5117 100.143 79.679 98.2788 79.386 98.2788C79.0929 98.2788 71.1809 99.5545 71.1809 99.5545L53.2665 112.462L52.5241 112.998L44.5144 124.97L43.44 138.609Z" fill="#65617D"/>
<path d="M82.5117 97.698V158.733L80.9293 159.018V97.698H82.5117Z" fill="#65617D"/>
<path opacity="0.1" d="M155.967 91.1233L129.007 91.7121V124.132L154.599 141.561L160.753 135.87L159.483 117.029L160.753 99.4642L155.967 91.1233Z" fill="black"/>
<path opacity="0.1" d="M82.5117 97.698V158.733L80.9293 159.018V97.698H82.5117Z" fill="black"/>
<path opacity="0.1" d="M52.9149 116.538C64.6364 106.863 77.6668 105.44 82.5117 105.264V100.143C82.5117 100.143 79.679 98.2788 79.386 98.2788C79.0929 98.2788 71.1809 99.5545 71.1809 99.5545L53.2665 112.462L52.9149 116.538Z" fill="black"/>
<path d="M183.219 111.33C183.219 111.33 182.01 114.541 180.713 118.279C179.564 121.602 178.345 125.344 177.847 127.619C177.651 128.488 177.161 129.385 176.468 130.263C173.305 134.296 166.016 138.203 164.758 139.591C163.224 141.282 154.599 142.501 154.599 142.501V90.4364L160.362 88.572H167.688L177.163 92.8896L182.047 100.151L183.219 111.33Z" fill="#65617D"/>
<path d="M82.6934 80.8748C83.0724 81.338 94.5829 81.4459 95.1788 81.3105L96.2611 81.0652C96.2611 81.0652 101.817 84.0699 105.638 79.1537C105.802 78.9437 105.963 78.7199 106.119 78.4805C109.938 72.6321 97.2085 76.9105 97.2085 76.9105C97.2085 76.9105 92.3343 76.9379 91.088 76.9379H90.959C89.6638 76.885 87.0812 76.096 87.0812 76.096C87.0812 76.096 82.3164 80.4136 82.6934 80.8748Z" fill="#FBBEBE"/>
<path opacity="0.1" d="M99.4942 79.1125C99.4942 79.1125 104.368 79.1399 105.615 79.1537H105.644C105.808 78.9437 105.968 78.7199 106.125 78.4805C109.944 72.6321 97.2144 76.9105 97.2144 76.9105C97.2144 76.9105 92.3402 76.938 91.0938 76.938H90.9649C90.8418 77.0989 90.7207 77.2677 90.6015 77.4463C86.7158 83.2436 99.4942 79.1125 99.4942 79.1125Z" fill="black"/>
<path d="M109.61 79.6504C109.61 79.6504 106.857 78.7751 105.611 78.7614C104.365 78.7476 99.4903 78.7221 99.4903 78.7221C99.4903 78.7221 86.7158 82.8435 90.5976 77.0441C94.4794 71.2448 100.485 74.5693 100.485 74.5693L101.569 74.3358C102.167 74.2063 113.681 74.4437 114.048 74.9108C114.416 75.3779 109.61 79.6504 109.61 79.6504Z" fill="#FBBEBE"/>
<path d="M115.318 76.3708C115.318 76.3708 115.24 80.1448 112.636 80.3607C107.166 80.8101 108.557 78.6866 108.557 78.6866L109.03 74.4593L111.606 72.116C111.606 72.116 112.738 72.638 112.884 72.5497C113.031 72.4614 115.318 76.3708 115.318 76.3708Z" fill="#2C74F9"/>
<path d="M78.3506 81.1457C78.5107 81.1712 78.7159 81.1967 78.9522 81.2183C80.687 81.3772 84.0921 81.4145 84.0921 81.4145C84.0921 81.4145 86.6318 76.3531 88.8042 76.5081C88.8042 76.5081 86.8018 74.2237 85.9891 74.4965C85.8523 74.5417 85.7683 74.4416 85.7253 74.2453C85.5105 73.264 86.2587 69.9277 86.2587 69.9277L87.2882 65.4138L81.3259 66.8897C80.7847 66.9996 79.1066 67.8709 79.1066 67.8709C79.1066 67.8709 79.0519 70.2103 78.6182 70.7559C78.1845 71.3015 77.6981 73.9117 77.7508 74.5632C77.8035 75.2148 77.155 78.2646 77.8055 79.0771C78.456 79.8896 76.9967 80.9278 78.3506 81.1457Z" fill="#2C74F9"/>
<path opacity="0.1" d="M84.4711 69.2842C84.4711 69.2842 79.4895 69.8278 79.2726 71.0799C79.0558 72.332 84.4711 69.2842 84.4711 69.2842Z" fill="black"/>
<path opacity="0.1" d="M81.4919 74.1807C81.1676 74.2906 79.2727 74.7792 78.8937 75.9234C78.5147 77.0676 81.4919 74.1807 81.4919 74.1807Z" fill="black"/>
<path opacity="0.1" d="M79.1769 81.4205C80.9117 81.5794 84.3168 81.6167 84.3168 81.6167C84.3168 81.6167 86.8565 76.5553 89.0289 76.7103C89.0289 76.7103 87.0245 74.4259 86.2137 74.6987C86.077 74.7439 85.991 74.6438 85.95 74.4475C83.8284 75.0991 79.7845 76.6907 79.3879 79.4854C79.2746 80.2469 79.2062 80.8827 79.1769 81.4205Z" fill="black"/>
<path opacity="0.3" d="M160.778 22.4712C163.112 22.4712 165.004 20.5707 165.004 18.2262C165.004 15.8818 163.112 13.9812 160.778 13.9812C158.445 13.9812 156.553 15.8818 156.553 18.2262C156.553 20.5707 158.445 22.4712 160.778 22.4712Z" fill="#2C74F9"/>
<path opacity="0.3" d="M179.533 31.9659C181.368 31.9659 182.856 30.4713 182.856 28.6276C182.856 26.7839 181.368 25.2893 179.533 25.2893C177.697 25.2893 176.21 26.7839 176.21 28.6276C176.21 30.4713 177.697 31.9659 179.533 31.9659Z" fill="#2C74F9"/>
<path opacity="0.3" d="M188.828 13.7183C189.475 13.7183 190 13.1911 190 12.5408C190 11.8905 189.475 11.3633 188.828 11.3633C188.18 11.3633 187.656 11.8905 187.656 12.5408C187.656 13.1911 188.18 13.7183 188.828 13.7183Z" fill="#2C74F9"/>
<path d="M24.2538 135.322C24.2538 135.322 25.6467 137.153 23.611 139.916C21.5754 142.68 19.8992 145.019 20.5732 146.738C20.5732 146.738 23.6462 141.604 26.1488 141.534C28.6513 141.463 27.0161 138.413 24.2538 135.322Z" fill="#2C74F9"/>
<path opacity="0.1" d="M24.2538 135.322C24.3755 135.498 24.4716 135.691 24.539 135.895C26.9791 138.776 28.2801 141.465 25.9339 141.534C23.7478 141.596 21.1261 145.521 20.499 146.513C20.5187 146.589 20.5435 146.665 20.5732 146.738C20.5732 146.738 23.6462 141.604 26.1488 141.534C28.6513 141.463 27.0162 138.413 24.2538 135.322Z" fill="black"/>
<path d="M26.8442 137.656C26.8442 138.299 26.7719 138.822 26.684 138.822C26.5961 138.822 26.5238 138.299 26.5238 137.656C26.5238 137.012 26.6137 137.314 26.7016 137.314C26.7895 137.314 26.8442 137.01 26.8442 137.656Z" fill="#FFD037"/>
<path d="M27.7331 138.425C27.1705 138.733 26.6801 138.919 26.6371 138.841C26.5942 138.762 27.0161 138.448 27.5807 138.14C28.1453 137.832 27.9207 138.056 27.9714 138.14C28.0222 138.225 28.2977 138.117 27.7331 138.425Z" fill="#FFD037"/>
<path d="M16.8907 135.322C16.8907 135.322 15.4978 137.153 17.5334 139.916C19.5691 142.68 21.2453 145.019 20.5732 146.738C20.5732 146.738 17.4983 141.604 14.9977 141.534C12.4971 141.463 14.1381 138.413 16.8907 135.322Z" fill="#2C74F9"/>
<path opacity="0.1" d="M16.8907 135.322C16.769 135.498 16.6729 135.691 16.6055 135.895C14.1655 138.776 12.8644 141.465 15.2106 141.534C17.3967 141.596 20.0184 145.521 20.6475 146.513C20.6268 146.589 20.6021 146.664 20.5732 146.738C20.5732 146.738 17.4983 141.604 14.9977 141.534C12.4971 141.463 14.1381 138.413 16.8907 135.322Z" fill="black"/>
<path d="M14.3002 137.656C14.3002 138.299 14.3725 138.822 14.4604 138.822C14.5484 138.822 14.6206 138.299 14.6206 137.656C14.6206 137.012 14.5308 137.314 14.4429 137.314C14.3549 137.314 14.3002 137.01 14.3002 137.656Z" fill="#FFD037"/>
<path d="M13.4114 138.425C13.974 138.733 14.4644 138.919 14.5074 138.841C14.5503 138.762 14.1284 138.448 13.5638 138.14C12.9992 137.832 13.2238 138.056 13.1731 138.14C13.1223 138.225 12.8468 138.117 13.4114 138.425Z" fill="#FFD037"/>
<path opacity="0.28" d="M20.7167 160.747C28.7455 160.176 35.1833 158.709 35.0961 157.471C35.0088 156.233 28.4295 155.693 20.4007 156.264C12.372 156.835 5.9341 158.301 6.02135 159.539C6.10861 160.777 12.6879 161.318 20.7167 160.747Z" fill="#2C74F9"/>
<path d="M28.073 144.271L28.0027 144.843L27.905 145.651L27.866 145.987L27.7683 146.795L27.7253 147.133L27.6276 147.939L26.5121 157.124C26.4125 157.945 25.0802 158.582 23.4704 158.582H17.6741C16.0643 158.582 14.7339 157.945 14.6343 157.124L13.5169 147.939L13.4192 147.133L13.3782 146.795L13.2785 145.987L13.2395 145.651L13.1418 144.843L13.0714 144.271C13.0148 143.806 13.7376 143.416 14.648 143.416H26.4985C27.4069 143.416 28.1297 143.806 28.073 144.271Z" fill="#65617D"/>
<path d="M28.0027 144.844L27.905 145.651H13.2375L13.1398 144.844H28.0027Z" fill="#9D9CB5"/>
<path d="M27.864 145.989L27.7663 146.797H13.3782L13.2785 145.989H27.864Z" fill="#9D9CB5"/>
<path d="M27.7234 147.133L27.6257 147.939H13.5169L13.4192 147.133H27.7234Z" fill="#9D9CB5"/>
<path opacity="0.1" d="M136.972 79.1772L142.309 79.45L133.512 82.2329L129.007 81.9719L136.972 79.1772Z" fill="black"/>
<path d="M136.97 78.9438L142.307 79.2186L133.508 82.0015L129.003 81.7385L136.97 78.9438Z" fill="white"/>
<path d="M136.341 79.5521C136.55 79.4598 136.776 79.6267 137.001 79.6659C137.13 79.6895 137.263 79.6659 137.392 79.6855C137.654 79.717 137.915 79.8818 138.173 79.7974L136.341 79.5521Z" fill="#D3DAE1"/>
<path d="M136.067 79.7171C136.276 79.6249 136.503 79.7917 136.728 79.8309C136.857 79.8545 136.989 79.8309 137.118 79.8506C137.38 79.882 137.642 80.0468 137.89 79.9605L136.067 79.7171Z" fill="#D3DAE1"/>
<path d="M135.44 80.0467C135.649 79.9545 135.876 80.1213 136.102 80.1605C136.229 80.1841 136.362 80.1605 136.493 80.1802C136.755 80.2116 137.017 80.3764 137.275 80.2901L135.44 80.0467Z" fill="#D3DAE1"/>
<path d="M148.936 78.1272C148.936 78.1272 148.267 81.2516 151.239 81.6205L151.423 81.2751C151.423 81.2751 149.115 79.0987 148.936 78.1272Z" fill="#2C74F9"/>
<path d="M152.368 81.2516L151.676 81.3988L151.608 81.4125C151.608 81.4125 149.764 79.9092 149.787 76.5532C150.034 77.048 150.329 77.5168 150.668 77.9525C151.399 78.924 152.229 80.2212 152.368 81.2516Z" fill="#2C74F9"/>
<path d="M152.601 81.5736C152.546 81.6088 152.484 81.6313 152.42 81.6394C152.356 81.6476 152.291 81.6412 152.229 81.6207C150.455 81.2047 151.057 75.3975 151.057 75.3975C151.155 75.4446 151.262 76.1825 151.671 77.1363C152.384 78.8123 153.171 81.1517 152.601 81.5736Z" fill="#2C74F9"/>
<path d="M156.539 78.1272C156.539 78.1272 156.654 81.2516 153.683 81.6205L153.499 81.2751C153.499 81.2751 156.344 79.0987 156.539 78.1272Z" fill="#2C74F9"/>
<path d="M155.683 76.5532C155.707 79.9092 153.312 81.4125 153.312 81.4125L153.241 81.3988L152.552 81.2516C152.688 80.2212 153.528 78.924 154.249 77.9525C154.663 77.424 155.145 76.9534 155.683 76.5532Z" fill="#2C74F9"/>
<path d="M153.232 81.2694C153.125 81.3988 152.992 81.5027 152.841 81.5736V81.5736C152.794 81.5943 152.745 81.6101 152.694 81.6207C152.259 81.7247 152.108 81.4068 152.132 80.871C152.173 79.9133 152.77 78.2549 153.304 77.0146C153.56 76.4043 153.939 75.8538 154.417 75.3975C154.417 75.3975 154.39 79.929 153.232 81.2694Z" fill="#2C74F9"/>
<path d="M152.735 73.3604C152.735 73.3604 150.754 80.4255 152.46 81.4833C154.165 82.5412 153.173 73.9864 152.735 73.3604Z" fill="#2C74F9"/>
<path opacity="0.1" d="M148.936 78.1272C148.936 78.1272 148.267 81.2516 151.239 81.6205L151.423 81.2751C151.423 81.2751 149.115 79.0987 148.936 78.1272Z" fill="black"/>
<path opacity="0.1" d="M152.368 81.2516L151.676 81.3988L151.608 81.4125C151.608 81.4125 149.764 79.9092 149.787 76.5532C150.034 77.048 150.329 77.5168 150.668 77.9525C151.399 78.924 152.229 80.2212 152.368 81.2516Z" fill="black"/>
<path opacity="0.1" d="M152.601 81.5736C152.546 81.6088 152.484 81.6313 152.42 81.6394C152.356 81.6476 152.291 81.6412 152.229 81.6207C150.455 81.2047 151.057 75.3975 151.057 75.3975C151.155 75.4446 151.262 76.1825 151.671 77.1363C152.384 78.8123 153.171 81.1517 152.601 81.5736Z" fill="black"/>
<path opacity="0.1" d="M156.539 78.1272C156.539 78.1272 156.654 81.2516 153.683 81.6205L153.499 81.2751C153.499 81.2751 156.344 79.0987 156.539 78.1272Z" fill="black"/>
<path opacity="0.1" d="M155.683 76.5532C155.707 79.9092 153.312 81.4125 153.312 81.4125L153.241 81.3988L152.552 81.2516C152.688 80.2212 153.528 78.924 154.249 77.9525C154.663 77.424 155.145 76.9534 155.683 76.5532Z" fill="black"/>
<path opacity="0.1" d="M153.232 81.2694C153.125 81.3988 152.992 81.5027 152.841 81.5736V81.5736C152.794 81.5943 152.745 81.6101 152.694 81.6207C152.259 81.7247 152.108 81.4068 152.132 80.871C152.173 79.9133 152.77 78.2549 153.304 77.0146C153.56 76.4043 153.939 75.8538 154.417 75.3975C154.417 75.3975 154.39 79.929 153.232 81.2694Z" fill="black"/>
<path opacity="0.1" d="M152.735 73.3604C152.735 73.3604 150.754 80.4255 152.46 81.4833C154.165 82.5412 153.173 73.9864 152.735 73.3604Z" fill="black"/>
<path d="M148.936 78.1272C148.936 78.1272 148.545 81.2516 151.514 81.6205L151.698 81.2751C151.698 81.2751 149.115 79.0987 148.936 78.1272Z" fill="#2C74F9"/>
<path d="M152.644 81.2516L151.952 81.3988L151.884 81.4125C151.884 81.4125 149.764 79.9092 149.787 76.5532C149.787 76.5532 150.33 77.142 150.944 77.9525C151.675 78.924 152.505 80.2212 152.644 81.2516Z" fill="#2C74F9"/>
<path opacity="0.1" d="M152.644 81.2517L151.952 81.3989C151.297 80.8199 151.038 79.3127 150.944 77.9526C151.675 78.9241 152.505 80.2213 152.644 81.2517Z" fill="black"/>
<path d="M152.878 81.5736C152.823 81.6087 152.761 81.6311 152.697 81.6393C152.632 81.6474 152.567 81.6411 152.505 81.6207C150.731 81.2046 151.055 75.3975 151.055 75.3975C151.153 75.4446 151.538 76.1825 151.944 77.1363C152.661 78.8123 153.446 81.1517 152.878 81.5736Z" fill="#2C74F9"/>
<path d="M156.539 78.1272C156.539 78.1272 156.93 81.2516 153.96 81.6205L153.777 81.2751C153.777 81.2751 156.344 79.0987 156.539 78.1272Z" fill="#2C74F9"/>
<path d="M155.683 76.5532C155.707 79.9092 153.587 81.4125 153.587 81.4125L153.519 81.3988L152.827 81.2516C152.964 80.2212 153.804 78.924 154.527 77.9525C155.14 77.1381 155.683 76.5532 155.683 76.5532Z" fill="#2C74F9"/>
<path opacity="0.1" d="M154.527 77.9526C154.437 79.2204 154.206 80.6158 153.646 81.2694C153.606 81.3154 153.564 81.3587 153.519 81.3989L152.827 81.2517C152.964 80.2213 153.804 78.9241 154.527 77.9526Z" fill="black"/>
<path d="M153.507 81.2694C153.401 81.3994 153.268 81.5034 153.116 81.5736V81.5736C153.07 81.594 153.021 81.6098 152.972 81.6207C152.534 81.7247 152.386 81.4068 152.407 80.871C152.45 79.9133 153.048 78.2549 153.579 77.0146C153.97 76.1197 154.324 75.4446 154.417 75.3975C154.417 75.3975 154.667 79.929 153.507 81.2694Z" fill="#2C74F9"/>
<path opacity="0.1" d="M152.878 81.5736C152.777 81.5727 152.679 81.5413 152.597 81.4833C151.762 80.9613 151.745 79.0007 151.944 77.1362C152.661 78.8123 153.446 81.1516 152.878 81.5736Z" fill="black"/>
<path opacity="0.1" d="M153.507 81.2695C153.411 81.4775 153.282 81.5874 153.116 81.5737C153.032 81.5612 152.951 81.5304 152.88 81.4834C152.663 81.333 152.498 81.1192 152.407 80.8711C152.45 79.9133 153.048 78.255 153.579 77.0146C153.771 78.7358 153.835 80.5629 153.507 81.2695Z" fill="black"/>
<path d="M152.735 73.3604C152.735 73.3604 151.032 80.4255 152.735 81.4833C154.439 82.5412 153.173 73.9864 152.735 73.3604Z" fill="#2C74F9"/>
<path d="M155.408 81.8308L155.289 82.4549L154.855 84.7452H150.731L150.297 82.4549L150.178 81.8308H155.408Z" fill="#65617D"/>
<path opacity="0.1" d="M155.408 81.8308L155.289 82.4549H150.297L150.178 81.8308H155.408Z" fill="black"/>
<path d="M156.281 81.136H149.188V82.3155H156.281V81.136Z" fill="#65617D"/>
<path d="M168.274 91.1155C168.274 91.1155 182.293 99.947 179.226 114.156C178.976 115.316 178.759 116.48 178.616 117.655C178.056 122.259 174.692 135.469 154.599 141.553V142.927L163.123 140.538L168.909 137.334L173.326 133.352L178.726 126.736L181.232 121.339L182.15 114.23L182.672 106.113L181.381 99.162L178.335 94.6343L174.623 91.7337L168.274 91.1155Z" fill="#D9D6DF"/>
<path d="M39.0756 129.022C37.7511 136.088 38.7787 143.437 42.2365 149.739C52.319 168.113 73.7459 162.706 80.0677 160.621C81.572 160.125 83.0958 159.695 84.6391 159.344L154.273 143.49C178.237 139.304 183.186 119.808 183.186 119.808C187.931 104.771 184.678 96.0102 180.384 91.0449C178.684 89.1013 176.565 87.5726 174.188 86.5748C171.812 85.5771 169.24 85.1366 166.668 85.2868L158.409 85.7264L84.9869 93.7729C50.6643 94.1418 41.4961 116.089 39.0756 129.022ZM45.8761 129.907C48.1911 118.788 57.2713 102.659 86.4755 101.664C87.8157 101.617 89.1539 101.499 90.4843 101.321L156.148 92.509L163.752 92.1165C169.464 91.828 174.977 94.499 178.144 99.2818C181.168 103.853 182.803 111.057 179.062 122.257C179.062 122.257 174.485 139.277 152.323 142.933L88.0052 156.769C86.5419 157.083 85.0963 157.468 83.6682 157.911C77.8348 159.721 58.4376 164.309 49.0155 148.899C45.5518 143.233 44.5203 136.415 45.8761 129.907Z" fill="#E1DEE5"/>
</g>
<defs>
<clipPath id="clip0">
<rect width="190" height="163" fill="white"/>
</clipPath>
</defs>
</svg>
