<svg width="100" height="85" viewBox="0 0 100 85" fill="none" xmlns="http://www.w3.org/2000/svg">
<path d="M88.2549 30.2124L79.5593 70.2124C79.4593 70.6721 79.0525 71 78.5821 71H12C11.4477 71 11 70.5523 11 70V14C11 13.4477 11.4477 13 12 13H27.9139C28.1478 13 28.3743 13.082 28.554 13.2318L33.9978 17.7682C34.1775 17.918 34.404 18 34.638 18H78C78.5523 18 79 18.4477 79 19V25C79 25.5523 78.5523 26 78 26H20C19.4477 26 19 26.9477 19 27.5C19 28.0523 19.4477 29 20 29H87.2778C87.83 29 88.2778 29.4477 88.2778 30C88.2778 30.0714 88.2701 30.1426 88.2549 30.2124Z" fill="black"/>
</svg>
