<svg width="771" height="160" viewBox="0 0 771 160" fill="none" xmlns="http://www.w3.org/2000/svg"><path fill="#271F47" d="M0 0h771v160H0z"/><path fill-rule="evenodd" clip-rule="evenodd" d="M26.467 57.213l67.137 67.137H26.467V57.213z" fill="#BBD034"/><path fill-rule="evenodd" clip-rule="evenodd" d="M226.479 113.084c-12.334 0-21.993-10.155-21.993-23.122 0-13.401 9.143-23.127 21.74-23.127 12.609 0 22.117 9.942 22.117 23.127 0 13.398-9.195 23.122-21.864 23.122zm0-56.15c-18.944 0-33.785 14.508-33.785 33.028 0 18.448 14.728 32.898 33.532 32.898 19.014 0 33.909-14.45 33.909-32.898 0-18.83-14.468-33.027-33.656-33.027zM284.136 89.962c0-13.185 8.969-23.127 20.859-23.127 8.218 0 13.334 3.707 17.216 7.534l7.123-7.69c-6.579-6.735-14.083-9.744-24.213-9.744-18.377 0-32.774 14.507-32.774 33.027 0 18.448 14.342 32.898 32.648 32.898 12.728 0 19.718-5.3 24.805-10.683l-6.797-6.702c-5.516 5.256-10.869 7.609-17.253 7.609-12.319 0-21.614-9.939-21.614-23.122zM414.695 58.317H402.09l25.918 63.54h11.409l25.796-63.54h-12.232l-19.211 52.125-19.075-52.125zM481.036 121.352h11.789V58.317h-11.789v63.035zM629.175 113.084c-12.333 0-21.992-10.155-21.992-23.122 0-13.401 9.142-23.127 21.738-23.127 12.611 0 22.119 9.942 22.119 23.127 0 13.398-9.196 23.122-21.865 23.122zm0-56.15c-18.944 0-33.784 14.508-33.784 33.028 0 18.448 14.727 32.898 33.53 32.898 19.017 0 33.913-14.45 33.913-32.898 0-18.83-14.471-33.027-33.659-33.027zM168.004 92.147c-1.042 12.359-9.994 20.937-21.77 20.937-12.333 0-21.995-10.155-21.995-23.122 0-13.401 9.143-23.127 21.741-23.127 11.716 0 20.975 8.796 22.02 20.914l.004 4.398zm-21.77-35.212c-18.944 0-33.784 14.507-33.784 33.027 0 18.448 14.728 32.898 33.53 32.898 7.058 0 13.749-1.969 19.35-5.695l2.674-1.781v7.258h12.338V32.117h-12.338V64.26l-2.669-1.759c-5.523-3.642-12.129-5.566-19.101-5.566zM703.186 58.5c-4.926 0-9.761 1.215-13.982 3.506l-2.543 1.384v-6.887h-11.794l-.012 29.472.003 36.523h11.81V85.635c.289-9.93 6.996-16.846 16.313-16.846 4.607 0 8.854 1.8 11.953 5.066 3.089 3.255 4.79 7.722 4.783 12.576v36.067h11.737V86.25c0-15.558-12.416-27.75-28.268-27.75zM571 121.352h11.787V58.317H571v63.035zM389.589 66.679c-6.579-6.735-14.082-9.744-24.212-9.744-12.703.17-21.934 8.188-21.934 19.064 0 5.297 2.027 9.367 6.198 12.446 3.769 2.628 8.553 4.31 12.742 5.614.202.071.391.124.577.18.27.075.509.144.716.213l.392.128c7.786 2.548 14.505 4.747 14.505 10.445 0 2.458-1.349 8.185-13.867 8.254-6.452 0-12.439-2.621-17.932-7.793l-6.797 6.7c7.146 7.486 14.666 10.69 24.991 10.69l2.169-.046c12.733-.174 21.97-8.192 21.97-19.066 0-5.284-2.015-9.344-6.161-12.416-3.808-2.66-8.589-4.343-12.776-5.644-.179-.064-.345-.11-.51-.156l-.232-.07-.971-.304c-7.772-2.546-14.48-4.743-14.48-10.436 0-4.763 4.472-7.86 11.39-7.891 8.133 0 13.227 3.7 17.099 7.522l7.123-7.69zM556.01 66.679c-6.579-6.735-14.083-9.744-24.213-9.744-12.703.17-21.933 8.188-21.933 19.064 0 5.297 2.027 9.367 6.198 12.446 3.769 2.628 8.553 4.31 12.742 5.614.202.071.39.124.576.18.271.075.51.144.717.213l.392.128c7.786 2.548 14.505 4.747 14.505 10.445 0 2.458-1.35 8.185-13.867 8.254-6.452 0-12.439-2.621-17.932-7.793l-6.797 6.7c7.146 7.486 14.666 10.69 24.991 10.69l2.169-.046c12.733-.174 21.97-8.192 21.97-19.066 0-5.284-2.015-9.344-6.161-12.416-3.808-2.66-8.59-4.343-12.777-5.644a7.003 7.003 0 00-.509-.156l-.232-.07-.971-.304c-7.772-2.546-14.48-4.743-14.48-10.436 0-4.763 4.472-7.86 11.39-7.891 8.133 0 13.227 3.7 17.099 7.522l7.123-7.69zM486.923 44.455a5.882 5.882 0 005.877-5.877 5.881 5.881 0 00-5.877-5.874 5.882 5.882 0 00-5.876 5.874 5.883 5.883 0 005.876 5.877zM576.876 44.455a5.882 5.882 0 005.877-5.877 5.881 5.881 0 00-5.877-5.874A5.883 5.883 0 00571 38.578a5.883 5.883 0 005.876 5.877z" fill="#fff"/></svg>