<svg width="74" height="92" viewBox="0 0 74 92" fill="none" xmlns="http://www.w3.org/2000/svg"><path d="M9 9h20v5H9V9zM9 19h20v5H9v-5zM9 29h33v5H9v-5zM9 39h33v5H9v-5z" fill="#005243"/><path fill-rule="evenodd" clip-rule="evenodd" d="M34.497 66.957H4.261A4.26 4.26 0 010 62.696V4.26A4.26 4.26 0 014.26 0h33.217L56 18.385V23.5h1.841l6.167 10.091-.523 27.191-.028.02 9.857 13.249-23.616 17.57-6.423-8.632a7.995 7.995 0 01-1.001-7.77l-7.777-8.262zM3.652 4.26c0-.336.273-.609.609-.609h30.637v17.32h17.45V23.5h-3.816c-2.72 0-4.4 2.968-3 5.3l.934 1.559A7.5 7.5 0 0052.897 34h.603v4.757c0 .42-.161.726-.37.893-.24.192-.515.4-.812.623-1.028.776-2.32 1.75-3.357 2.995-1.429 1.713-2.461 3.978-2.461 7.232 0 4.276 1.076 7.422 2.595 9.907a20.582 20.582 0 002.168 2.897H4.261a.609.609 0 01-.609-.608V4.26zm51.993 58.435h-.832c-1.133-1.143-2.235-2.343-3.158-3.853-1.231-2.015-2.155-4.619-2.155-8.343 0-2.531.773-4.121 1.764-5.31.796-.954 1.696-1.635 2.668-2.37.35-.265.708-.536 1.074-.829 1.033-.828 1.494-2.062 1.494-3.234V31h-3.603a4.5 4.5 0 01-3.859-2.185l-.934-1.558a.5.5 0 01.428-.757h7.627l4.833 7.909-.477 24.809-4.87 3.478zm-5.903-45.377L38.55 6.211V17.32h11.19zm-2.734 57.284l14.389-10.706 7.02 9.435-18 13.392-4.334-5.824a4.5 4.5 0 01.925-6.297zM40.05 67.75l4.16 4.42 5.978-4.42H40.05z" fill="#005243"/></svg>