<svg width="69" height="81" viewBox="0 0 69 81" xmlns="http://www.w3.org/2000/svg">
<path fill-rule="evenodd" clip-rule="evenodd" d="M4.26087 3.65217C3.9247 3.65217 3.65217 3.9247 3.65217 4.26087V62.6956C3.65217 63.0318 3.9247 63.3043 4.26087 63.3043H51.7391C52.0753 63.3043 52.3478 63.0318 52.3478 62.6956V20.9713H34.8985V3.65217H4.26087ZM38.5507 6.21142L49.7419 17.3191H38.5507V6.21142ZM0 4.26087C0 1.90766 1.90765 0 4.26087 0H37.477L56 18.3848V62.6956C56 65.0489 54.0923 66.9565 51.7391 66.9565H4.26087C1.90766 66.9565 0 65.0489 0 62.6956V4.26087ZM9 9H29V14H9V9ZM29 19H9V24H29V19ZM9 29H42V34H9V29ZM42 39H9V44H42V39ZM60.5 17.25C61.4665 17.25 62.25 18.0335 62.25 19V69C62.25 71.6234 60.1234 73.75 57.5 73.75H7V70.25H57.5C58.1904 70.25 58.75 69.6904 58.75 69V19C58.75 18.0335 59.5335 17.25 60.5 17.25ZM68.25 26C68.25 25.0335 67.4665 24.25 66.5 24.25C65.5335 24.25 64.75 25.0335 64.75 26V76C64.75 76.6904 64.1904 77.25 63.5 77.25H13V80.75H63.5C66.1234 80.75 68.25 78.6234 68.25 76V26Z" />
</svg>
