<svg width="285" height="189" viewBox="0 0 285 189" fill="none" xmlns="http://www.w3.org/2000/svg">
<path d="M285 86.8569C285 94.2171 282.222 101.306 277.22 106.707C272.218 112.108 265.361 115.423 258.02 115.989C257.772 116.008 257.521 116.026 257.27 116.038V88.3066C257.27 88.0294 257.209 87.7557 257.089 87.5055C256.97 87.2553 256.796 87.035 256.581 86.8606C256.556 86.8351 256.528 86.8125 256.498 86.7932C256.471 86.7711 256.442 86.7511 256.412 86.7333C256.149 86.5639 255.847 86.4631 255.535 86.4402C255.223 86.4173 254.91 86.473 254.625 86.6022L254.314 85.9204C254.654 85.7656 255.023 85.6851 255.397 85.6844L234.052 67.3032C234.217 67.1159 234.389 66.9323 234.562 66.7488C238.586 62.5085 243.789 59.5719 249.5 58.3185C255.211 57.0651 261.166 57.5524 266.597 59.7175C272.028 61.8826 276.684 65.626 279.965 70.464C283.246 75.302 284.999 81.0122 285 86.8569V86.8569Z" fill="#FBC7C7"/>
<path d="M7.41127 106.78C7.30512 106.238 7.31917 105.679 7.45243 105.143C7.58569 104.607 7.83492 104.106 8.18256 103.677C8.53019 103.248 8.96778 102.9 9.46451 102.658C9.96124 102.415 10.505 102.285 11.0575 102.276L27.9061 82.2266L32.1124 87.6027L14.9414 106.262C14.8954 107.191 14.5101 108.071 13.8586 108.735C13.2071 109.399 12.3346 109.801 11.4064 109.864C10.4782 109.928 9.55888 109.649 8.82255 109.081C8.08623 108.512 7.58409 107.694 7.41129 106.78H7.41127Z" fill="#FFB8B8"/>
<path d="M87.4189 82.1026C87.3009 82.2731 87.1966 82.4526 87.1069 82.6395L68.71 85.2683L65.9164 81.7229L60.0129 85.238L65.5622 93.887L87.9991 87.2754C88.5912 87.8112 89.3324 88.1541 90.1242 88.2585C90.916 88.3629 91.7209 88.2239 92.4317 87.8599C93.1425 87.4959 93.7256 86.9242 94.1035 86.2209C94.4814 85.5175 94.6361 84.7159 94.5471 83.9225C94.4581 83.1291 94.1296 82.3816 93.6053 81.7794C93.081 81.1772 92.3856 80.7488 91.6118 80.5512C90.838 80.3537 90.0224 80.3963 89.2734 80.6734C88.5244 80.9505 87.8775 81.449 87.4189 82.1026Z" fill="#FFB8B8"/>
<path d="M55.994 149.091L59.2496 152.331L73.3019 141.321L68.4971 136.539L55.994 149.091Z" fill="#FFB8B8"/>
<path d="M62.518 161.603L52.2865 151.419L56.2226 147.467L62.501 153.716C63.0202 154.233 63.4324 154.847 63.7142 155.523C63.996 156.199 64.1418 156.924 64.1434 157.656C64.145 158.388 64.0023 159.114 63.7234 159.791C63.4445 160.468 63.0349 161.084 62.518 161.603L62.518 161.603Z" fill="#2F2E41"/>
<path d="M38.689 180.171H43.2832L45.4686 162.458H38.6883L38.689 180.171Z" fill="#FFB8B8"/>
<path d="M52.1432 184.435L37.7047 184.436L37.7044 178.859L46.5644 178.859C47.297 178.859 48.0224 179.003 48.6992 179.283C49.3761 179.564 49.9911 179.974 50.5091 180.492C51.0271 181.01 51.4381 181.625 51.7185 182.301C51.9988 182.978 52.1432 183.703 52.1432 184.435V184.435Z" fill="#2F2E41"/>
<path d="M37.6903 166.49L32.4575 127.912C31.6385 122.082 31.8927 116.151 33.2074 110.413C34.2812 105.801 35.7319 102.606 37.5193 100.918C37.8013 100.653 38.1624 100.488 38.5472 100.449L55.8245 98.6495C56.1573 98.6155 56.4929 98.6768 56.7922 98.8263C57.0915 98.9758 57.342 99.2073 57.5146 99.4938L58.0826 100.44C58.1515 100.555 58.2071 100.677 58.2483 100.805L61.9012 112.125C61.9557 112.296 62.0437 112.454 62.16 112.591C62.2764 112.728 62.4188 112.84 62.5789 112.921C68.3302 115.857 87.0123 125.765 85.9432 130.04C84.9386 134.057 75.5335 140.57 72.6749 142.47C72.3838 142.665 72.041 142.767 71.6908 142.765C71.3407 142.762 70.9994 142.654 70.7113 142.455L65.9661 139.21C65.7344 139.051 65.5441 138.84 65.4109 138.593C65.2778 138.346 65.2058 138.07 65.2009 137.79C65.196 137.509 65.2583 137.231 65.3827 136.98C65.5071 136.728 65.69 136.51 65.916 136.344L69.1883 133.933C69.3886 133.786 69.5448 133.586 69.6401 133.357C69.7355 133.127 69.7664 132.876 69.7295 132.63C69.6927 132.384 69.5894 132.153 69.4309 131.961C69.2723 131.769 69.0645 131.625 68.8297 131.542L51.2556 125.378C51.0583 125.309 50.8477 125.286 50.6401 125.31C50.4324 125.335 50.2332 125.407 50.0578 125.521C49.8824 125.635 49.7355 125.788 49.6283 125.967C49.5211 126.147 49.4565 126.348 49.4395 126.557L46.1992 166.147C46.1634 166.571 45.9751 166.968 45.669 167.265C45.3629 167.561 44.9598 167.737 44.5343 167.759L39.5207 168.009C39.4901 168.011 39.4599 168.012 39.4296 168.012C39.0041 168.013 38.5926 167.86 38.2724 167.58C37.9522 167.299 37.7452 166.912 37.6903 166.49V166.49Z" fill="#2F2E41"/>
<path d="M45.6142 66.7091C50.6973 66.7091 54.8179 62.5899 54.8179 57.5087C54.8179 52.4275 50.6973 48.3083 45.6142 48.3083C40.5312 48.3083 36.4105 52.4275 36.4105 57.5087C36.4105 62.5899 40.5312 66.7091 45.6142 66.7091Z" fill="#FFB8B8"/>
<path d="M37.0057 99.3419L30.231 74.632L30.347 74.5538C30.4925 74.4557 45.0949 64.8168 62.1914 72.5845L62.5014 72.7623L58.487 98.4095C58.3994 98.9948 58.1103 99.5312 57.6695 99.9262C57.2286 100.321 56.6637 100.55 56.0721 100.573L39.5531 101.209C39.5198 101.21 39.4866 101.21 39.4536 101.21C38.8967 101.212 38.355 101.029 37.9124 100.691C37.4698 100.354 37.1511 99.8793 37.0057 99.3419V99.3419Z" fill="#CCCCCC"/>
<path d="M29.9731 90.7184L24.3308 84.2322C24.059 83.9206 23.906 83.5231 23.8987 83.1097C23.8914 82.6963 24.0303 82.2937 24.2909 81.9726L30.1893 74.6887L34.7173 75.9232L37.1179 84.3223L32.7408 90.5731C32.5882 90.7924 32.3872 90.9739 32.1534 91.1034C31.9196 91.233 31.6592 91.3072 31.3922 91.3204C31.3607 91.322 31.3293 91.3227 31.2979 91.3227C31.0466 91.3232 30.7981 91.2695 30.5695 91.1652C30.3409 91.0609 30.1374 90.9085 29.9731 90.7184V90.7184Z" fill="#CCCCCC"/>
<path d="M61.1747 89.3672C60.9078 89.354 60.6474 89.2798 60.4136 89.1502C60.1798 89.0206 59.9788 88.8392 59.8261 88.6199L55.4491 82.369L57.5544 73.5278L61.7235 72.3911L62.5014 72.7622L68.2761 80.0194C68.5367 80.3404 68.6756 80.7431 68.6683 81.1565C68.661 81.5698 68.508 81.9674 68.2362 82.279L62.5938 88.7652C62.4295 88.9553 62.2261 89.1077 61.9975 89.212C61.7689 89.3163 61.5204 89.37 61.2691 89.3695C61.2378 89.3695 61.2062 89.3687 61.1747 89.3672Z" fill="#CCCCCC"/>
<path d="M257.27 86.4709C257.274 86.5642 257.241 86.6553 257.18 86.7257C257.116 86.8012 257.024 86.8479 256.925 86.8556C256.826 86.8634 256.727 86.8314 256.652 86.7669L255.397 85.6843L234.052 67.3031L174.186 15.7404C173.844 15.4482 173.409 15.2879 172.96 15.2886C172.51 15.2893 172.076 15.4509 171.735 15.7442L91.1163 85.7592L90.3893 86.3885C90.3614 86.4132 90.3298 86.4334 90.2956 86.4485C90.2356 86.475 90.1697 86.4854 90.1044 86.4784C90.0109 86.4685 89.9242 86.4245 89.8609 86.3548C89.8283 86.318 89.8034 86.2751 89.7875 86.2285C89.7715 86.182 89.7649 86.1328 89.7681 86.0838C89.7712 86.0347 89.784 85.9867 89.8057 85.9426C89.8274 85.8985 89.8576 85.8591 89.8946 85.8266L89.9957 85.7367L171.244 15.1785C171.722 14.7686 172.33 14.5426 172.959 14.5413C173.588 14.5399 174.197 14.7632 174.677 15.1711L234.562 66.7487L257.139 86.1975C257.178 86.2316 257.21 86.2735 257.233 86.3206C257.256 86.3676 257.268 86.4188 257.27 86.4709V86.4709Z" fill="#3F3D56"/>
<path d="M211.752 97.5326L210.767 94.8206L207.371 85.4558L200.057 65.2915L191.88 42.7523L177.135 2.09775C176.845 1.30496 176.253 0.659166 175.488 0.301801C174.723 -0.0555643 173.848 -0.0953772 173.054 0.191079L87.7999 31.0912C87.0066 31.3803 86.3603 31.9721 86.0028 32.7368C85.6452 33.5015 85.6056 34.3767 85.8926 35.1705L106.799 92.8053L107.154 93.7905L129.099 103.732L135.267 106.527L136.267 106.98L162.382 118.813L163.394 118.446L180.522 112.239L206.36 102.874L209.841 101.612C210.635 101.323 211.281 100.732 211.64 99.967C211.998 99.2024 212.038 98.327 211.752 97.5326V97.5326Z" fill="#D0CFCF"/>
<path d="M176.003 49.525C175.578 48.3582 174.707 47.4076 173.582 46.8817C172.456 46.3557 171.168 46.2973 170 46.7193L136.267 58.9497L119.978 64.8533C119.399 65.0624 118.867 65.3835 118.412 65.7983C117.958 66.213 117.59 66.7132 117.329 67.2703C117.067 67.8274 116.919 68.4305 116.891 69.0451C116.863 69.6597 116.957 70.2737 117.167 70.8521C117.376 71.4305 117.698 71.9619 118.114 72.4159C118.529 72.8699 119.03 73.2376 119.587 73.498C120.145 73.7584 120.748 73.9064 121.363 73.9336C121.978 73.9607 122.592 73.8665 123.17 73.6562L136.267 68.9101L173.196 55.526C174.364 55.1008 175.315 54.2304 175.841 53.1054C176.367 51.9805 176.425 50.6929 176.003 49.525V49.525Z" fill="white"/>
<path d="M181.943 65.9022C181.517 64.7354 180.647 63.7848 179.521 63.2589C178.396 62.7329 177.108 62.6745 175.939 63.0965L170.225 65.168L136.267 77.4771L125.917 81.2267C124.75 81.6508 123.799 82.5207 123.273 83.6453C122.747 84.7699 122.69 86.0572 123.113 87.2244C123.536 88.3915 124.405 89.3429 125.53 89.8697C126.654 90.3964 127.942 90.4553 129.11 90.0334L136.267 87.4375L179.136 71.8994C179.233 71.8657 179.327 71.8245 179.421 71.7833C180.509 71.3059 181.375 70.4327 181.844 69.3406C182.312 68.2485 182.347 67.0193 181.943 65.9022V65.9022Z" fill="white"/>
<path d="M187.946 82.4517C187.521 81.2851 186.651 80.3345 185.527 79.8085C184.402 79.2825 183.114 79.2241 181.946 79.646L165.919 85.4559L153.512 89.9547L136.267 96.203L131.92 97.78C130.916 98.1458 130.066 98.8435 129.512 99.7576C128.958 100.672 128.733 101.748 128.874 102.807C128.917 103.122 128.992 103.432 129.099 103.732L135.267 106.527L136.267 106.163H136.275L167.568 94.8207L185.139 88.4526C186.307 88.0284 187.258 87.158 187.785 86.0328C188.311 84.9076 188.369 83.6195 187.946 82.4517H187.946Z" fill="white"/>
<path d="M152.823 33.4249C152.397 32.2581 151.526 31.3075 150.401 30.7816C149.276 30.2556 147.988 30.1972 146.819 30.6192L127.446 37.639C126.279 38.0631 125.328 38.933 124.802 40.0576C124.276 41.1822 124.218 42.4695 124.641 43.6366C125.065 44.8038 125.934 45.7552 127.058 46.282C128.183 46.8087 129.471 46.8676 130.639 46.4457L136.769 44.2244L140.827 42.7522L150.016 39.4221C151.183 38.9978 152.134 38.128 152.66 37.0037C153.186 35.8793 153.245 34.5923 152.823 33.4249Z" fill="white"/>
<path d="M230.136 42.7524H139.452C138.917 42.753 138.391 42.8881 137.922 43.1454C137.453 43.4027 137.057 43.7738 136.769 44.2246C136.44 44.735 136.266 45.3294 136.267 45.9365V106.98L162.382 118.813L166.062 120.48L171.874 123.114C172.214 123.267 172.583 123.347 172.957 123.347C173.33 123.347 173.699 123.267 174.04 123.114L179.852 120.48L198.041 112.239L214.994 104.556L233.321 96.2555V45.9365C233.321 45.0922 232.985 44.2826 232.388 43.6856C231.791 43.0886 230.981 42.753 230.136 42.7524Z" fill="#2C74F9"/>
<path d="M211.4 85.4558H158.189C156.979 85.4565 155.816 85.9253 154.944 86.764C154.072 87.6027 153.559 88.7461 153.512 89.9547C153.506 90.0156 153.503 90.0769 153.504 90.1382C153.506 91.3795 154 92.5695 154.878 93.4472C155.756 94.325 156.947 94.8189 158.189 94.8206H211.4C212.642 94.8206 213.833 94.3273 214.712 93.4492C215.59 92.571 216.084 91.3801 216.084 90.1382C216.084 88.8964 215.59 87.7054 214.712 86.8273C213.833 85.9491 212.642 85.4558 211.4 85.4558Z" fill="white"/>
<path d="M214.431 103.991C213.587 103.268 212.511 102.872 211.4 102.874H158.189C156.946 102.874 155.755 103.368 154.876 104.246C153.998 105.124 153.504 106.315 153.504 107.557C153.504 108.799 153.998 109.99 154.876 110.868C155.755 111.746 156.946 112.239 158.189 112.239H198.041L214.994 104.556C214.822 104.352 214.634 104.163 214.431 103.991Z" fill="white"/>
<path d="M166.062 120.48L171.874 123.114C172.214 123.267 172.583 123.347 172.957 123.347C173.33 123.347 173.699 123.267 174.04 123.114L179.852 120.48H166.062Z" fill="white"/>
<path d="M199.499 65.4939C199.169 64.5925 198.57 63.8141 197.783 63.264C196.996 62.714 196.059 62.4188 195.099 62.4185H174.489C173.589 62.4193 172.709 62.679 171.953 63.1665C171.197 63.6541 170.597 64.3489 170.225 65.168C169.947 65.7745 169.804 66.4339 169.805 67.1009C169.807 68.3422 170.301 69.5321 171.179 70.4099C172.057 71.2876 173.247 71.7815 174.489 71.7833H195.099C195.853 71.7833 196.595 71.6017 197.263 71.2537C197.932 70.9057 198.506 70.4016 198.938 69.7843C199.37 69.167 199.646 68.4546 199.744 67.7077C199.841 66.9608 199.757 66.2013 199.499 65.4939Z" fill="white"/>
<mask id="path-24-inside-1" fill="white">
<path d="M196.223 112.239L178.034 120.48L173.729 122.432C173.486 122.541 173.223 122.598 172.957 122.598C172.69 122.598 172.427 122.541 172.185 122.432L167.879 120.48H166.062L171.874 123.114C172.193 123.258 172.537 123.337 172.887 123.346C172.91 123.346 172.933 123.347 172.957 123.347C173.283 123.347 173.607 123.286 173.911 123.168C173.954 123.151 173.997 123.133 174.04 123.114L179.852 120.48L198.041 112.239H196.223ZM196.223 112.239L178.034 120.48L173.729 122.432C173.486 122.541 173.223 122.598 172.957 122.598C172.69 122.598 172.427 122.541 172.185 122.432L167.879 120.48H166.062L171.874 123.114C172.193 123.258 172.537 123.337 172.887 123.346C172.91 123.346 172.933 123.347 172.957 123.347C173.283 123.347 173.607 123.286 173.911 123.168C173.954 123.151 173.997 123.133 174.04 123.114L179.852 120.48L198.041 112.239H196.223ZM196.223 112.239L178.034 120.48L173.729 122.432C173.486 122.541 173.223 122.598 172.957 122.598C172.69 122.598 172.427 122.541 172.185 122.432L167.879 120.48H166.062L171.874 123.114C172.193 123.258 172.537 123.337 172.887 123.346C172.91 123.346 172.933 123.347 172.957 123.347C173.283 123.347 173.607 123.286 173.911 123.168C173.954 123.151 173.997 123.133 174.04 123.114L179.852 120.48L198.041 112.239H196.223ZM257.27 86.471C257.132 86.3335 256.98 86.2105 256.817 86.1039C256.449 85.8653 256.026 85.7234 255.589 85.6913C255.151 85.6593 254.713 85.738 254.314 85.9203L214.431 103.991L196.223 112.239L178.034 120.48L173.729 122.432C173.486 122.541 173.223 122.598 172.957 122.598C172.69 122.598 172.427 122.541 172.185 122.432L167.879 120.48L163.394 118.446L136.274 106.163L136.267 106.16L128.874 102.807L106.799 92.8054L91.5996 85.9204C91.445 85.8488 91.2829 85.7948 91.1162 85.7593C90.7492 85.6676 90.3662 85.6599 89.9957 85.7368C89.4031 85.8581 88.8704 86.1799 88.4875 86.648C88.1046 87.1161 87.8948 87.7018 87.8936 88.3065V182.378C87.8943 183.073 88.1709 183.74 88.6627 184.231C89.1544 184.723 89.8212 184.999 90.5166 185H255.397C256.092 184.999 256.759 184.723 257.251 184.231C257.742 183.74 258.019 183.073 258.02 182.378V88.3065C258.021 87.62 257.752 86.9606 257.27 86.471ZM257.27 182.378C257.27 182.875 257.073 183.351 256.721 183.702C256.37 184.053 255.893 184.251 255.397 184.251H90.5166C90.0198 184.251 89.5433 184.053 89.192 183.702C88.8407 183.351 88.6432 182.875 88.643 182.378V88.3065C88.6431 87.9935 88.7218 87.6855 88.8717 87.4106C89.0216 87.1358 89.238 86.9029 89.5011 86.7332C89.6863 86.6147 89.8903 86.5285 90.1044 86.4785C90.1675 86.4649 90.2313 86.4549 90.2956 86.4485C90.3688 86.4379 90.4427 86.4329 90.5166 86.4335C90.783 86.4339 91.0463 86.4914 91.2886 86.6021L107.154 93.7905L129.098 103.732L135.267 106.527L136.267 106.98L162.382 118.813L166.062 120.48L171.874 123.114C172.193 123.258 172.537 123.337 172.887 123.346C172.91 123.346 172.933 123.347 172.957 123.347C173.283 123.347 173.607 123.286 173.911 123.168C173.954 123.151 173.997 123.133 174.04 123.114L179.852 120.48L198.041 112.239L214.994 104.556L254.625 86.6021C254.91 86.4729 255.223 86.4173 255.535 86.4402C255.847 86.4631 256.149 86.5638 256.412 86.7332C256.442 86.751 256.471 86.771 256.498 86.7931C256.528 86.8124 256.556 86.835 256.581 86.8606C256.796 87.0349 256.97 87.2552 257.089 87.5054C257.209 87.7556 257.27 88.0293 257.27 88.3065L257.27 182.378ZM196.223 112.239L178.034 120.48L173.729 122.432C173.486 122.541 173.223 122.598 172.957 122.598C172.69 122.598 172.427 122.541 172.185 122.432L167.879 120.48H166.062L171.874 123.114C172.193 123.258 172.537 123.337 172.887 123.346C172.91 123.346 172.933 123.347 172.957 123.347C173.283 123.347 173.607 123.286 173.911 123.168C173.954 123.151 173.997 123.133 174.04 123.114L179.852 120.48L198.041 112.239H196.223ZM196.223 112.239L178.034 120.48L173.729 122.432C173.486 122.541 173.223 122.598 172.957 122.598C172.69 122.598 172.427 122.541 172.185 122.432L167.879 120.48H166.062L171.874 123.114C172.193 123.258 172.537 123.337 172.887 123.346C172.91 123.346 172.933 123.347 172.957 123.347C173.283 123.347 173.607 123.286 173.911 123.168C173.954 123.151 173.997 123.133 174.04 123.114L179.852 120.48L198.041 112.239H196.223ZM135.267 106.527L136.267 106.98V106.163L135.267 106.527ZM196.223 112.239L178.034 120.48L173.729 122.432C173.486 122.541 173.223 122.598 172.957 122.598C172.69 122.598 172.427 122.541 172.185 122.432L167.879 120.48H166.062L171.874 123.114C172.193 123.258 172.537 123.337 172.887 123.346C172.91 123.346 172.933 123.347 172.957 123.347C173.283 123.347 173.607 123.286 173.911 123.168C173.954 123.151 173.997 123.133 174.04 123.114L179.852 120.48L198.041 112.239H196.223Z"/>
<path d="M171.874 123.114L166.062 120.48L162.382 118.813L136.267 106.98L135.267 106.527L129.098 103.732L107.154 93.7905L91.2886 86.6021C91.0463 86.4914 90.783 86.4339 90.5166 86.4335C90.4427 86.4329 90.3688 86.4379 90.2956 86.4485C90.2313 86.4549 90.1675 86.4649 90.1044 86.4785C89.8903 86.5285 89.6863 86.6147 89.5011 86.7332C89.238 86.9029 89.0216 87.1358 88.8717 87.4106C88.7218 87.6855 88.6431 87.9935 88.643 88.3065V182.378C88.6432 182.875 88.8407 183.351 89.192 183.702C89.5433 184.053 90.0198 184.251 90.5166 184.251H255.397C255.893 184.251 256.37 184.053 256.721 183.702C257.073 183.351 257.27 182.875 257.27 182.378L257.27 88.3065C257.27 88.0293 257.209 87.7556 257.089 87.5054C256.97 87.2552 256.796 87.0349 256.581 86.8606C256.556 86.835 256.528 86.8124 256.498 86.7931C256.471 86.771 256.442 86.751 256.412 86.7332C256.149 86.5638 255.847 86.4631 255.535 86.4402C255.223 86.4173 254.91 86.4729 254.625 86.6021L214.994 104.556L198.041 112.239L179.852 120.48L174.04 123.114C173.997 123.133 173.954 123.151 173.911 123.168C173.607 123.286 173.283 123.347 172.957 123.347C172.933 123.347 172.91 123.346 172.887 123.346C172.537 123.337 172.193 123.258 171.874 123.114Z"/>
</mask>
<path d="M196.223 112.239L178.034 120.48L173.729 122.432C173.486 122.541 173.223 122.598 172.957 122.598C172.69 122.598 172.427 122.541 172.185 122.432L167.879 120.48H166.062L171.874 123.114C172.193 123.258 172.537 123.337 172.887 123.346C172.91 123.346 172.933 123.347 172.957 123.347C173.283 123.347 173.607 123.286 173.911 123.168C173.954 123.151 173.997 123.133 174.04 123.114L179.852 120.48L198.041 112.239H196.223ZM196.223 112.239L178.034 120.48L173.729 122.432C173.486 122.541 173.223 122.598 172.957 122.598C172.69 122.598 172.427 122.541 172.185 122.432L167.879 120.48H166.062L171.874 123.114C172.193 123.258 172.537 123.337 172.887 123.346C172.91 123.346 172.933 123.347 172.957 123.347C173.283 123.347 173.607 123.286 173.911 123.168C173.954 123.151 173.997 123.133 174.04 123.114L179.852 120.48L198.041 112.239H196.223ZM196.223 112.239L178.034 120.48L173.729 122.432C173.486 122.541 173.223 122.598 172.957 122.598C172.69 122.598 172.427 122.541 172.185 122.432L167.879 120.48H166.062L171.874 123.114C172.193 123.258 172.537 123.337 172.887 123.346C172.91 123.346 172.933 123.347 172.957 123.347C173.283 123.347 173.607 123.286 173.911 123.168C173.954 123.151 173.997 123.133 174.04 123.114L179.852 120.48L198.041 112.239H196.223ZM257.27 86.471C257.132 86.3335 256.98 86.2105 256.817 86.1039C256.449 85.8653 256.026 85.7234 255.589 85.6913C255.151 85.6593 254.713 85.738 254.314 85.9203L214.431 103.991L196.223 112.239L178.034 120.48L173.729 122.432C173.486 122.541 173.223 122.598 172.957 122.598C172.69 122.598 172.427 122.541 172.185 122.432L167.879 120.48L163.394 118.446L136.274 106.163L136.267 106.16L128.874 102.807L106.799 92.8054L91.5996 85.9204C91.445 85.8488 91.2829 85.7948 91.1162 85.7593C90.7492 85.6676 90.3662 85.6599 89.9957 85.7368C89.4031 85.8581 88.8704 86.1799 88.4875 86.648C88.1046 87.1161 87.8948 87.7018 87.8936 88.3065V182.378C87.8943 183.073 88.1709 183.74 88.6627 184.231C89.1544 184.723 89.8212 184.999 90.5166 185H255.397C256.092 184.999 256.759 184.723 257.251 184.231C257.742 183.74 258.019 183.073 258.02 182.378V88.3065C258.021 87.62 257.752 86.9606 257.27 86.471ZM257.27 182.378C257.27 182.875 257.073 183.351 256.721 183.702C256.37 184.053 255.893 184.251 255.397 184.251H90.5166C90.0198 184.251 89.5433 184.053 89.192 183.702C88.8407 183.351 88.6432 182.875 88.643 182.378V88.3065C88.6431 87.9935 88.7218 87.6855 88.8717 87.4106C89.0216 87.1358 89.238 86.9029 89.5011 86.7332C89.6863 86.6147 89.8903 86.5285 90.1044 86.4785C90.1675 86.4649 90.2313 86.4549 90.2956 86.4485C90.3688 86.4379 90.4427 86.4329 90.5166 86.4335C90.783 86.4339 91.0463 86.4914 91.2886 86.6021L107.154 93.7905L129.098 103.732L135.267 106.527L136.267 106.98L162.382 118.813L166.062 120.48L171.874 123.114C172.193 123.258 172.537 123.337 172.887 123.346C172.91 123.346 172.933 123.347 172.957 123.347C173.283 123.347 173.607 123.286 173.911 123.168C173.954 123.151 173.997 123.133 174.04 123.114L179.852 120.48L198.041 112.239L214.994 104.556L254.625 86.6021C254.91 86.4729 255.223 86.4173 255.535 86.4402C255.847 86.4631 256.149 86.5638 256.412 86.7332C256.442 86.751 256.471 86.771 256.498 86.7931C256.528 86.8124 256.556 86.835 256.581 86.8606C256.796 87.0349 256.97 87.2552 257.089 87.5054C257.209 87.7556 257.27 88.0293 257.27 88.3065L257.27 182.378ZM196.223 112.239L178.034 120.48L173.729 122.432C173.486 122.541 173.223 122.598 172.957 122.598C172.69 122.598 172.427 122.541 172.185 122.432L167.879 120.48H166.062L171.874 123.114C172.193 123.258 172.537 123.337 172.887 123.346C172.91 123.346 172.933 123.347 172.957 123.347C173.283 123.347 173.607 123.286 173.911 123.168C173.954 123.151 173.997 123.133 174.04 123.114L179.852 120.48L198.041 112.239H196.223ZM196.223 112.239L178.034 120.48L173.729 122.432C173.486 122.541 173.223 122.598 172.957 122.598C172.69 122.598 172.427 122.541 172.185 122.432L167.879 120.48H166.062L171.874 123.114C172.193 123.258 172.537 123.337 172.887 123.346C172.91 123.346 172.933 123.347 172.957 123.347C173.283 123.347 173.607 123.286 173.911 123.168C173.954 123.151 173.997 123.133 174.04 123.114L179.852 120.48L198.041 112.239H196.223ZM135.267 106.527L136.267 106.98V106.163L135.267 106.527ZM196.223 112.239L178.034 120.48L173.729 122.432C173.486 122.541 173.223 122.598 172.957 122.598C172.69 122.598 172.427 122.541 172.185 122.432L167.879 120.48H166.062L171.874 123.114C172.193 123.258 172.537 123.337 172.887 123.346C172.91 123.346 172.933 123.347 172.957 123.347C173.283 123.347 173.607 123.286 173.911 123.168C173.954 123.151 173.997 123.133 174.04 123.114L179.852 120.48L198.041 112.239H196.223Z" fill="white"/>
<path d="M171.874 123.114L166.062 120.48L162.382 118.813L136.267 106.98L135.267 106.527L129.098 103.732L107.154 93.7905L91.2886 86.6021C91.0463 86.4914 90.783 86.4339 90.5166 86.4335C90.4427 86.4329 90.3688 86.4379 90.2956 86.4485C90.2313 86.4549 90.1675 86.4649 90.1044 86.4785C89.8903 86.5285 89.6863 86.6147 89.5011 86.7332C89.238 86.9029 89.0216 87.1358 88.8717 87.4106C88.7218 87.6855 88.6431 87.9935 88.643 88.3065V182.378C88.6432 182.875 88.8407 183.351 89.192 183.702C89.5433 184.053 90.0198 184.251 90.5166 184.251H255.397C255.893 184.251 256.37 184.053 256.721 183.702C257.073 183.351 257.27 182.875 257.27 182.378L257.27 88.3065C257.27 88.0293 257.209 87.7556 257.089 87.5054C256.97 87.2552 256.796 87.0349 256.581 86.8606C256.556 86.835 256.528 86.8124 256.498 86.7931C256.471 86.771 256.442 86.751 256.412 86.7332C256.149 86.5638 255.847 86.4631 255.535 86.4402C255.223 86.4173 254.91 86.4729 254.625 86.6021L214.994 104.556L198.041 112.239L179.852 120.48L174.04 123.114C173.997 123.133 173.954 123.151 173.911 123.168C173.607 123.286 173.283 123.347 172.957 123.347C172.933 123.347 172.91 123.346 172.887 123.346C172.537 123.337 172.193 123.258 171.874 123.114Z" fill="white"/>
<path d="M196.223 112.239V111.739H196.115L196.017 111.784L196.223 112.239ZM178.034 120.48L177.828 120.025L177.828 120.025L178.034 120.48ZM173.729 122.432L173.934 122.888L173.935 122.887L173.729 122.432ZM172.185 122.432L171.978 122.887L171.979 122.888L172.185 122.432ZM167.879 120.48L168.086 120.025L167.987 119.98H167.879V120.48ZM171.874 123.114L171.667 123.569L171.668 123.569L171.874 123.114ZM174.04 123.114L174.245 123.569L174.246 123.569L174.04 123.114ZM179.852 120.48L179.645 120.025L179.645 120.025L179.852 120.48ZM198.041 112.239L198.247 112.695L198.247 112.695L198.041 112.239ZM257.27 182.378L257.77 182.378L257.77 182.378L257.27 182.378ZM255.397 184.251L255.397 184.751L255.397 184.751L255.397 184.251ZM90.5166 184.251L90.5164 184.751H90.5166V184.251ZM88.643 182.378H88.143L88.143 182.378L88.643 182.378ZM88.643 88.3065L88.143 88.3063V88.3065H88.643ZM89.5011 86.7332L89.2316 86.3121L89.2302 86.313L89.5011 86.7332ZM90.1044 86.4785L89.9988 85.9897L89.9905 85.9916L90.1044 86.4785ZM90.2956 86.4485L90.3446 86.9461L90.3559 86.945L90.3671 86.9434L90.2956 86.4485ZM90.5166 86.4335L90.5125 86.9335L90.516 86.9335L90.5166 86.4335ZM91.2886 86.6021L91.0807 87.0569L91.0822 87.0575L91.2886 86.6021ZM107.154 93.7905L106.948 94.246L106.948 94.246L107.154 93.7905ZM129.098 103.732L129.305 103.277L129.305 103.277L129.098 103.732ZM135.267 106.527L135.06 106.982L135.06 106.982L135.267 106.527ZM136.267 106.98L136.473 106.524L136.473 106.524L136.267 106.98ZM162.382 118.813L162.176 119.269L162.176 119.269L162.382 118.813ZM214.994 104.556L214.787 104.101L214.787 104.101L214.994 104.556ZM254.625 86.6021L254.418 86.1466L254.418 86.1467L254.625 86.6021ZM256.412 86.7332L256.141 87.1537L256.15 87.159L256.158 87.164L256.412 86.7332ZM256.498 86.7931L256.183 87.181L256.204 87.1987L256.228 87.2139L256.498 86.7931ZM256.581 86.8606L256.222 87.2092L256.243 87.2306L256.266 87.2493L256.581 86.8606ZM257.27 88.3065L256.77 88.306L256.77 88.3065L257.27 88.3065ZM173.911 123.168L174.092 123.634L174.092 123.634L173.911 123.168ZM172.887 123.346L172.873 123.846L172.873 123.846L172.887 123.346ZM196.017 111.784L177.828 120.025L178.24 120.936L196.43 112.695L196.017 111.784ZM177.828 120.025L173.522 121.976L173.935 122.887L178.241 120.936L177.828 120.025ZM173.523 121.976C173.345 122.056 173.152 122.098 172.957 122.098V123.098C173.294 123.098 173.627 123.026 173.934 122.888L173.523 121.976ZM172.957 122.098C172.761 122.098 172.568 122.056 172.39 121.976L171.979 122.888C172.287 123.026 172.62 123.098 172.957 123.098V122.098ZM172.391 121.976L168.086 120.025L167.673 120.936L171.978 122.887L172.391 121.976ZM167.879 119.98H166.062V120.98H167.879V119.98ZM165.855 120.936L171.667 123.569L172.08 122.658L166.268 120.025L165.855 120.936ZM174.246 123.569L180.058 120.936L179.645 120.025L173.833 122.658L174.246 123.569ZM180.058 120.936L198.247 112.695L197.834 111.784L179.645 120.025L180.058 120.936ZM198.041 111.739H196.223V112.739H198.041V111.739ZM256.77 182.378C256.77 182.742 256.625 183.091 256.368 183.348L257.075 184.056C257.52 183.611 257.77 183.007 257.77 182.378L256.77 182.378ZM256.368 183.348C256.11 183.606 255.761 183.751 255.396 183.751L255.397 184.751C256.026 184.751 256.63 184.501 257.075 184.056L256.368 183.348ZM255.397 183.751H90.5166V184.751H255.397V183.751ZM90.5168 183.751C90.1524 183.751 89.8031 183.606 89.5455 183.348L88.8385 184.056C89.2836 184.501 89.8871 184.751 90.5164 184.751L90.5168 183.751ZM89.5455 183.348C89.2879 183.091 89.1431 182.742 89.143 182.378L88.143 182.378C88.1432 183.007 88.3934 183.611 88.8385 184.056L89.5455 183.348ZM89.143 182.378V88.3065H88.143V182.378H89.143ZM89.143 88.3067C89.1431 88.0773 89.2007 87.8515 89.3106 87.6501L88.4327 87.1712C88.2428 87.5194 88.1432 87.9096 88.143 88.3063L89.143 88.3067ZM89.3106 87.6501C89.4205 87.4486 89.5792 87.2778 89.7721 87.1534L89.2302 86.313C88.8968 86.528 88.6226 86.823 88.4327 87.1712L89.3106 87.6501ZM89.7707 87.1543C89.908 87.0664 90.0594 87.0025 90.2182 86.9654L89.9905 85.9916C89.7212 86.0546 89.4645 86.163 89.2316 86.3121L89.7707 87.1543ZM90.2099 86.9672C90.2544 86.9576 90.2993 86.9506 90.3446 86.9461L90.2466 85.9509C90.1633 85.9591 90.0806 85.9721 89.9988 85.9898L90.2099 86.9672ZM90.3671 86.9434C90.4153 86.9364 90.4639 86.9331 90.5125 86.9335L90.5207 85.9336C90.4215 85.9327 90.3223 85.9395 90.224 85.9537L90.3671 86.9434ZM90.516 86.9335C90.7109 86.9338 90.9035 86.9758 91.0807 87.0569L91.4964 86.1473C91.1891 86.0069 90.8552 85.934 90.5173 85.9335L90.516 86.9335ZM91.0822 87.0575L106.948 94.246L107.361 93.3351L91.4949 86.1467L91.0822 87.0575ZM106.948 94.246L128.892 104.188L129.305 103.277L107.361 93.3351L106.948 94.246ZM128.892 104.188L135.06 106.982L135.473 106.071L129.305 103.277L128.892 104.188ZM135.06 106.982L136.061 107.435L136.473 106.524L135.473 106.071L135.06 106.982ZM136.061 107.435L162.176 119.269L162.588 118.358L136.473 106.524L136.061 107.435ZM162.176 119.269L165.855 120.936L166.268 120.025L162.588 118.358L162.176 119.269ZM198.247 112.695L215.2 105.012L214.787 104.101L197.834 111.784L198.247 112.695ZM215.2 105.012L254.831 87.0575L254.418 86.1467L214.787 104.101L215.2 105.012ZM254.831 87.0576C255.04 86.9629 255.269 86.922 255.498 86.9388L255.572 85.9415C255.176 85.9125 254.78 85.983 254.418 86.1466L254.831 87.0576ZM255.498 86.9388C255.727 86.9556 255.948 87.0295 256.141 87.1537L256.683 86.3127C256.349 86.0981 255.967 85.9705 255.572 85.9415L255.498 86.9388ZM256.158 87.164C256.167 87.169 256.175 87.1747 256.183 87.181L256.814 86.4053C256.767 86.3673 256.718 86.3329 256.666 86.3024L256.158 87.164ZM256.228 87.2139C256.226 87.2125 256.224 87.211 256.222 87.2092L256.939 86.512C256.888 86.4591 256.83 86.4123 256.768 86.3724L256.228 87.2139ZM256.266 87.2493C256.424 87.3767 256.551 87.5378 256.638 87.7206L257.541 87.2902C257.389 86.9727 257.169 86.6931 256.895 86.4718L256.266 87.2493ZM256.638 87.7206C256.725 87.9035 256.77 88.1035 256.77 88.306L257.77 88.307C257.77 87.9552 257.692 87.6078 257.541 87.2902L256.638 87.7206ZM256.77 88.3065L256.77 182.378L257.77 182.378L257.77 88.3065L256.77 88.3065ZM173.834 122.658C173.799 122.673 173.765 122.688 173.729 122.702L174.092 123.634C174.144 123.614 174.195 123.592 174.245 123.569L173.834 122.658ZM173.729 122.702C173.483 122.798 173.221 122.847 172.957 122.847V123.847C173.345 123.847 173.73 123.774 174.092 123.634L173.729 122.702ZM172.957 122.847C172.938 122.847 172.919 122.847 172.9 122.846L172.873 123.846C172.901 123.846 172.929 123.847 172.957 123.847V122.847ZM172.9 122.846C172.617 122.839 172.338 122.775 172.079 122.658L171.668 123.569C172.048 123.741 172.457 123.835 172.873 123.846L172.9 122.846ZM257.27 86.471L257.983 85.7698L257.975 85.762L257.27 86.471ZM256.817 86.1039L257.364 85.2666L257.361 85.2647L256.817 86.1039ZM254.314 85.9203L254.726 86.8312L254.729 86.8299L254.314 85.9203ZM214.431 103.991L214.844 104.902L214.844 104.902L214.431 103.991ZM163.394 118.446L163.807 117.535L163.806 117.535L163.394 118.446ZM136.274 106.163L135.829 107.058L135.845 107.067L135.862 107.074L136.274 106.163ZM136.267 106.16L136.713 105.265L136.697 105.256L136.68 105.249L136.267 106.16ZM128.874 102.807L129.287 101.896L129.286 101.896L128.874 102.807ZM106.799 92.8054L107.211 91.8945L107.211 91.8945L106.799 92.8054ZM91.5996 85.9204L91.1799 86.828L91.187 86.8313L91.5996 85.9204ZM91.1162 85.7593L90.8739 86.7295L90.8907 86.7337L90.9077 86.7373L91.1162 85.7593ZM89.9957 85.7368L90.1962 86.7165L90.199 86.7159L89.9957 85.7368ZM87.8936 88.3065L86.8936 88.3044V88.3065H87.8936ZM87.8936 182.378L86.8936 182.378L86.8936 182.379L87.8936 182.378ZM90.5166 185L90.5155 186H90.5166V185ZM255.397 185V186L255.398 186L255.397 185ZM258.02 182.378L259.02 182.379V182.378H258.02ZM258.02 88.3065L257.02 88.3047V88.3065H258.02ZM136.267 106.163H137.267V104.736L135.926 105.223L136.267 106.163ZM257.975 85.762C257.789 85.5765 257.584 85.4105 257.364 85.2666L256.27 86.9412C256.376 87.0105 256.475 87.0906 256.565 87.18L257.975 85.762ZM257.361 85.2647C256.851 84.9347 256.267 84.7384 255.662 84.694L255.516 86.6887C255.785 86.7084 256.046 86.796 256.273 86.9431L257.361 85.2647ZM255.662 84.694C255.057 84.6496 254.45 84.7586 253.898 85.0108L254.729 86.8299C254.975 86.7175 255.246 86.6689 255.516 86.6887L255.662 84.694ZM253.901 85.0095L214.019 103.08L214.844 104.902L254.726 86.8312L253.901 85.0095ZM214.019 103.08L195.811 111.328L196.636 113.15L214.844 104.902L214.019 103.08ZM168.292 119.569L163.807 117.535L162.981 119.357L167.466 121.391L168.292 119.569ZM163.806 117.535L136.687 105.252L135.862 107.074L162.981 119.357L163.806 117.535ZM136.72 105.268L136.713 105.265L135.821 107.055L135.829 107.058L136.72 105.268ZM136.68 105.249L129.287 101.896L128.461 103.718L135.854 107.07L136.68 105.249ZM129.286 101.896L107.211 91.8945L106.386 93.7162L128.461 103.718L129.286 101.896ZM107.211 91.8945L92.0123 85.0095L91.187 86.8313L106.386 93.7163L107.211 91.8945ZM92.0194 85.0127C91.7972 84.91 91.5642 84.8323 91.3248 84.7813L90.9077 86.7373C91.0015 86.7573 91.0928 86.7877 91.1799 86.828L92.0194 85.0127ZM91.3586 84.7891C90.8456 84.6609 90.3102 84.6502 89.7925 84.7577L90.199 86.7159C90.4221 86.6696 90.6528 86.6743 90.8739 86.7295L91.3586 84.7891ZM89.7953 84.7571C88.9773 84.9245 88.2421 85.3686 87.7135 86.0148L89.2615 87.2812C89.4988 86.9911 89.8289 86.7917 90.1962 86.7165L89.7953 84.7571ZM87.7135 86.0148C87.1849 86.661 86.8953 87.4696 86.8936 88.3044L88.8936 88.3086C88.8943 87.934 89.0243 87.5712 89.2615 87.2812L87.7135 86.0148ZM86.8936 88.3065V182.378H88.8936V88.3065H86.8936ZM86.8936 182.379C86.8946 183.339 87.2766 184.26 87.9557 184.938L89.3697 183.524C89.0652 183.22 88.894 182.807 88.8936 182.377L86.8936 182.379ZM87.9557 184.938C88.6348 185.617 89.5554 185.999 90.5155 186L90.5178 184C90.087 184 89.6741 183.828 89.3697 183.524L87.9557 184.938ZM90.5166 186H255.397V184H90.5166V186ZM255.398 186C256.358 185.999 257.278 185.617 257.957 184.938L256.544 183.524C256.239 183.828 255.826 184 255.395 184L255.398 186ZM257.957 184.938C258.637 184.26 259.019 183.339 259.02 182.379L257.02 182.377C257.019 182.807 256.848 183.22 256.544 183.524L257.957 184.938ZM259.02 182.378V88.3065H257.02V182.378H259.02ZM259.02 88.3083C259.021 87.3588 258.649 86.4468 257.983 85.7698L256.557 87.1722C256.854 87.4743 257.02 87.8812 257.02 88.3047L259.02 88.3083ZM137.267 106.98V106.163H135.267V106.98H137.267ZM135.926 105.223L134.925 105.587L135.608 107.467L136.608 107.103L135.926 105.223Z" fill="black" mask="url(#path-24-inside-1)"/>
<path d="M65.6261 186H23.3739C23.2747 186 23.1796 185.895 23.1095 185.707C23.0394 185.52 23 185.265 23 185C23 184.735 23.0394 184.48 23.1095 184.293C23.1796 184.105 23.2747 184 23.3739 184H65.6261C65.7253 184 65.8204 184.105 65.8905 184.293C65.9606 184.48 66 184.735 66 185C66 185.265 65.9606 185.52 65.8905 185.707C65.8204 185.895 65.7253 186 65.6261 186Z" fill="#3F3D56"/>
<path d="M42.1147 64.2372C41.4234 63.8865 40.8486 63.343 40.4598 62.6725C40.0711 62.0021 39.885 61.2333 39.9243 60.4594C39.9635 59.6854 40.2263 58.9394 40.6809 58.3117C41.1355 57.6839 41.7623 57.2013 42.4856 56.9223C45.2629 55.8509 48.3764 58.0374 51.2877 57.4158C54.1893 56.7962 55.8678 53.3285 55.1752 50.4444C54.4826 47.5603 51.9618 45.3879 49.1821 44.3505C47.3667 43.6746 45.4225 43.4155 43.4934 43.5923C41.5642 43.769 39.6995 44.3772 38.0373 45.3717C36.3922 46.3953 35.0221 47.8052 34.0461 49.4786C33.0702 51.1521 32.5178 53.0385 32.4372 54.9739C32.3994 56.911 32.8728 58.8239 33.8098 60.5199C34.7468 62.216 36.1143 63.6352 37.7746 64.6349C38.5145 65.0612 39.3758 65.4036 40.208 65.2116C40.8912 64.9898 41.5348 64.6609 42.1147 64.2372V64.2372Z" fill="#2F2E41"/>
<path d="M39.1321 45.1474C36.6831 41.9003 33.3772 39.2328 29.5303 37.9102C25.6834 36.5877 21.2874 36.6938 17.6744 38.5628C14.0615 40.4319 11.3671 44.1438 11.0858 48.2006C10.6178 54.9526 16.3892 60.6919 16.9815 67.4341C17.1692 69.5712 16.8222 71.7213 15.9717 73.6909C15.1213 75.6605 13.7941 77.3878 12.1096 78.717C10.4252 80.0462 8.43641 80.9357 6.32247 81.3054C4.20853 81.675 2.03581 81.5132 0 80.8345C1.45002 82.0277 3.1312 82.9082 4.93794 83.4207C6.74468 83.9333 8.63793 84.0668 10.4988 83.813C12.3565 83.5342 14.129 82.8457 15.6876 81.7973C17.2462 80.7489 18.5518 79.3669 19.5099 77.7516C20.8088 75.4956 21.3422 72.8751 21.5494 70.2803C21.8747 66.1776 21.4341 62.0502 20.2499 58.1086C19.6025 55.958 18.7246 53.7449 19.1351 51.5369C19.3691 50.3884 19.9356 49.3339 20.764 48.5046C21.5925 47.6752 22.6465 47.1074 23.795 46.8718C25.6512 46.5242 27.549 47.0905 29.3213 47.7422C31.0936 48.3939 32.8805 49.1481 34.7685 49.1912C36.6564 49.2344 38.7128 48.3705 39.4424 46.6293L39.1321 45.1474Z" fill="#2F2E41"/>
</svg>
