<svg width="226" height="137" viewBox="0 0 226 137" fill="none" xmlns="http://www.w3.org/2000/svg">
<g clip-path="url(#clip0)">
<path d="M18.7097 29.7229C25.142 29.7229 30.3564 24.5056 30.3564 18.0698C30.3564 11.634 25.142 6.41675 18.7097 6.41675C12.2774 6.41675 7.06299 11.634 7.06299 18.0698C7.06299 24.5056 12.2774 29.7229 18.7097 29.7229Z" fill="#FF6584"/>
<path d="M112.417 137C174.503 137 224.833 134.958 224.833 132.44C224.833 129.922 174.503 127.88 112.417 127.88C50.3307 127.88 0 129.922 0 132.44C0 134.958 50.3307 137 112.417 137Z" fill="#CACACA"/>
<path d="M28.6104 75.2938C44.4114 75.2938 57.2207 62.4775 57.2207 46.6678C57.2207 30.858 44.4114 18.0417 28.6104 18.0417C12.8093 18.0417 0 30.858 0 46.6678C0 62.4775 12.8093 75.2938 28.6104 75.2938Z" fill="#2C74F9"/>
<path d="M31.368 132.891H25.508L28.1794 42.3567L31.368 132.891Z" fill="#3F3D56"/>
<path d="M28.6964 59.5148L34.9874 50.8064L28.6103 61.6703L27.9209 60.4632L28.6964 59.5148Z" fill="#3F3D56"/>
<path d="M28.007 68.3097L21.7163 59.6013L28.0934 70.4653L28.7828 69.2582L28.007 68.3097Z" fill="#3F3D56"/>
<path d="M209.515 132.986H203.655L206.327 42.4519L209.515 132.986Z" fill="#3F3D56"/>
<path d="M206.844 59.6102L213.135 50.9019L206.758 61.7658L206.068 60.5587L206.844 59.6102Z" fill="#3F3D56"/>
<path d="M206.154 68.4052L199.864 59.6968L206.241 70.5607L206.93 69.3536L206.154 68.4052Z" fill="#3F3D56"/>
<path d="M116.228 132.971C145.663 132.971 169.525 109.096 169.525 79.6445C169.525 50.1931 145.663 26.3181 116.228 26.3181C86.7926 26.3181 62.9307 50.1931 62.9307 79.6445C62.9307 109.096 86.7926 132.971 116.228 132.971Z" fill="#3F3D56"/>
<path d="M116.228 128.556C143.226 128.556 165.113 106.658 165.113 79.6446C165.113 52.6313 143.226 30.7327 116.228 30.7327C89.2293 30.7327 67.3427 52.6313 67.3427 79.6446C67.3427 106.658 89.2293 128.556 116.228 128.556Z" fill="white"/>
<path d="M116.051 86.3546C119.658 86.3546 122.581 83.4295 122.581 79.8212C122.581 76.2129 119.658 73.2878 116.051 73.2878C112.445 73.2878 109.522 76.2129 109.522 79.8212C109.522 83.4295 112.445 86.3546 116.051 86.3546Z" fill="#3F3D56"/>
<path d="M117.463 33.2046H114.639V38.5019H117.463V33.2046Z" fill="#3F3D56"/>
<path d="M117.463 121.14H114.639V126.437H117.463V121.14Z" fill="#3F3D56"/>
<path d="M74.7549 81.2334V78.4082H69.4604V81.2334H74.7549Z" fill="#3F3D56"/>
<path d="M162.642 81.2334V78.4082H157.348V81.2334H162.642Z" fill="#3F3D56"/>
<path d="M114.169 82.6572L116.582 77.1365L146.819 93.8921L114.169 82.6572Z" fill="#3F3D56"/>
<path d="M123.111 13.428H109.345V29.3199H123.111V13.428Z" fill="#3F3D56"/>
<path d="M116.228 17.8423C125 17.8423 132.111 15.8659 132.111 13.4279C132.111 10.9898 125 9.01343 116.228 9.01343C107.456 9.01343 100.345 10.9898 100.345 13.4279C100.345 15.8659 107.456 17.8423 116.228 17.8423Z" fill="#3F3D56"/>
<path d="M145.965 89.0913L145.082 90.3273C145.082 90.3273 141.023 95.0949 140.847 92.7994C140.67 90.5039 143.847 88.9147 143.847 88.9147L145.612 87.8552L145.965 89.0913Z" fill="#FFB8B8"/>
<path d="M171.086 93.2616L171.825 94.5885C171.825 94.5885 174.394 100.299 172.245 99.4766C170.096 98.6538 170.02 95.1011 170.02 95.1011L169.818 93.0518L171.086 93.2616Z" fill="#FFB8B8"/>
<path d="M167.113 69.7326C170.081 69.7326 172.487 67.3254 172.487 64.3559C172.487 61.3865 170.081 58.9792 167.113 58.9792C164.145 58.9792 161.739 61.3865 161.739 64.3559C161.739 67.3254 164.145 69.7326 167.113 69.7326Z" fill="#2F2E41"/>
<path d="M166.613 108.515L167.319 113.106V114.518H171.378V112.753C171.378 112.753 171.555 109.574 170.849 108.691C170.143 107.808 166.613 108.515 166.613 108.515Z" fill="#FFB8B8"/>
<path d="M159.377 108.515L160.083 113.106V114.518H164.142V112.753C164.142 112.753 164.319 109.574 163.613 108.691C162.907 107.808 159.377 108.515 159.377 108.515Z" fill="#FFB8B8"/>
<path d="M162.109 71.6372C162.109 71.6372 160.548 72.4605 161.614 74.3333C162.68 76.2061 168.937 95.5816 168.937 95.5816L172.546 94.5564L169.363 82.3028L167.54 74.6013L162.109 71.6372Z" fill="#2C74F9"/>
<path d="M166.525 69.9326C168.767 69.9326 170.584 68.1143 170.584 65.8713C170.584 63.6284 168.767 61.8101 166.525 61.8101C164.283 61.8101 162.466 63.6284 162.466 65.8713C162.466 68.1143 164.283 69.9326 166.525 69.9326Z" fill="#FFB8B8"/>
<path d="M168.378 66.4895L167.848 74.7887L164.142 72.14C164.142 72.14 165.378 67.1958 165.025 66.8426L168.378 66.4895Z" fill="#FFB8B8"/>
<path d="M168.378 74.0825L164.385 71.1243C164.385 71.1243 162.554 70.3743 162.025 71.2572C161.495 72.1401 158.848 85.2068 160.26 87.6789C160.26 87.6789 167.848 89.2681 169.437 88.3852L170.143 83.7942C170.143 83.7942 171.025 80.969 169.613 79.2032L168.378 74.0825Z" fill="#2C74F9"/>
<path d="M163.083 71.4336C163.083 71.4336 161.672 70.3742 160.436 72.1399C159.201 73.9057 144.376 87.8553 144.376 87.8553L146.847 90.6806L156.554 82.558L162.73 77.6138L163.083 71.4336Z" fill="#2C74F9"/>
<path d="M169.525 88.2967C169.525 88.2967 160.789 86.6192 159.907 87.8553L159.73 89.7976C159.73 89.7976 157.789 93.5057 158.848 99.5094C159.907 105.513 159.201 109.221 159.201 109.221C159.201 109.221 163.966 108.691 167.496 109.221C171.025 109.751 171.555 109.221 171.555 109.221L169.525 88.2967Z" fill="#2F2E41"/>
<path d="M171.731 113.812L166.613 113.989L168.378 127.232C168.378 127.232 166.966 132.882 168.554 133.235C169.658 133.458 170.781 133.577 171.908 133.589C171.908 133.589 173.496 135.178 175.261 135.001C176.433 134.851 177.568 134.493 178.614 133.942C178.614 133.942 178.967 132.882 177.731 132.529C176.496 132.176 173.143 131.117 172.437 127.408L171.731 113.812Z" fill="#2F2E41"/>
<path d="M164.495 113.812L159.377 113.989L161.142 127.232C161.142 127.232 159.73 132.882 161.319 133.235C162.423 133.458 163.545 133.577 164.672 133.589C164.672 133.589 166.26 135.178 168.025 135.001C169.197 134.851 170.333 134.493 171.378 133.942C171.378 133.942 171.731 132.882 170.496 132.529C169.26 132.176 165.907 131.117 165.201 127.408L164.495 113.812Z" fill="#2F2E41"/>
<path d="M168.993 60.9218C170.221 60.9218 171.217 59.9257 171.217 58.697C171.217 57.4683 170.221 56.4722 168.993 56.4722C167.765 56.4722 166.769 57.4683 166.769 58.697C166.769 59.9257 167.765 60.9218 168.993 60.9218Z" fill="#2F2E41"/>
<path d="M171.958 57.4919C171.958 56.942 171.754 56.4116 171.386 56.0029C171.019 55.5943 170.512 55.3365 169.966 55.2791C170.043 55.2711 170.12 55.2671 170.197 55.2671C170.787 55.2671 171.353 55.5015 171.77 55.9187C172.187 56.336 172.421 56.9019 172.421 57.4919C172.421 58.082 172.187 58.6479 171.77 59.0651C171.353 59.4824 170.787 59.7168 170.197 59.7168C170.12 59.7167 170.043 59.7127 169.966 59.7047C170.512 59.6474 171.019 59.3895 171.386 58.9809C171.754 58.5723 171.958 58.0419 171.958 57.4919V57.4919Z" fill="#2F2E41"/>
<path d="M166.488 65.4406C168.535 65.4406 170.194 64.4446 170.194 63.2158C170.194 61.9871 168.535 60.991 166.488 60.991C164.441 60.991 162.782 61.9871 162.782 63.2158C162.782 64.4446 164.441 65.4406 166.488 65.4406Z" fill="#2F2E41"/>
<path d="M224.862 10.6781C224.711 8.00011 223.614 5.46298 221.767 3.51902C219.92 1.57507 217.443 0.350652 214.777 0.0640735C212.112 -0.222505 209.431 0.447387 207.213 1.95431C204.996 3.46123 203.385 5.70723 202.668 8.29187C202.531 8.28695 202.395 8.28144 202.256 8.28144C199.812 8.28189 197.434 9.07403 195.478 10.5394C193.522 12.0047 192.092 14.0644 191.403 16.4104C189.784 15.6985 187.974 15.5441 186.257 15.9713C184.541 16.3985 183.014 17.3832 181.917 18.7713H217.202C218.231 18.7742 219.251 18.5692 220.199 18.1687C221.148 17.7681 222.005 17.1803 222.721 16.4402C223.437 15.7002 223.997 14.8232 224.366 13.8618C224.735 12.9004 224.907 11.8743 224.87 10.845C224.868 10.7894 224.865 10.7338 224.862 10.6781Z" fill="#CACACA"/>
<path d="M195.364 34.4976C197.042 34.4976 198.402 33.1366 198.402 31.4577C198.402 29.7787 197.042 28.4177 195.364 28.4177C193.686 28.4177 192.326 29.7787 192.326 31.4577C192.326 33.1366 193.686 34.4976 195.364 34.4976Z" fill="#CACACA"/>
<path d="M204.538 26.8217C205.935 26.8217 207.068 25.6884 207.068 24.2905C207.068 22.8925 205.935 21.7593 204.538 21.7593C203.141 21.7593 202.008 22.8925 202.008 24.2905C202.008 25.6884 203.141 26.8217 204.538 26.8217Z" fill="#CACACA"/>
<path d="M216.885 41.0843C218.563 41.0843 219.923 39.7232 219.923 38.0443C219.923 36.3654 218.563 35.0044 216.885 35.0044C215.207 35.0044 213.847 36.3654 213.847 38.0443C213.847 39.7232 215.207 41.0843 216.885 41.0843Z" fill="#CACACA"/>
<path d="M193.845 55.0171C195.523 55.0171 196.883 53.6561 196.883 51.9772C196.883 50.2983 195.523 48.9373 193.845 48.9373C192.167 48.9373 190.807 50.2983 190.807 51.9772C190.807 53.6561 192.167 55.0171 193.845 55.0171Z" fill="#CACACA"/>
<path d="M216.885 72.4968C218.563 72.4968 219.923 71.1358 219.923 69.4569C219.923 67.778 218.563 66.417 216.885 66.417C215.207 66.417 213.847 67.778 213.847 69.4569C213.847 71.1358 215.207 72.4968 216.885 72.4968Z" fill="#CACACA"/>
<path d="M212.07 128.074C212.071 128.041 212.075 128.009 212.075 127.975C212.075 127.466 211.948 126.965 211.704 126.517C211.46 126.07 211.108 125.692 210.68 125.417C210.251 125.141 209.761 124.978 209.253 124.943C208.745 124.907 208.236 125 207.774 125.213C207.34 124.712 206.753 124.367 206.104 124.231C205.455 124.095 204.78 124.176 204.181 124.461C203.583 124.746 203.094 125.219 202.79 125.809C202.487 126.398 202.384 127.071 202.499 127.724C202.484 127.724 202.469 127.722 202.453 127.722C201.97 127.721 201.493 127.836 201.062 128.057C200.632 128.278 200.261 128.598 199.979 128.992C199.697 129.385 199.513 129.84 199.443 130.319C199.372 130.797 199.417 131.286 199.573 131.744C199.73 132.202 199.993 132.616 200.341 132.952C200.69 133.288 201.113 133.535 201.577 133.674C202.04 133.813 202.53 133.839 203.005 133.751C203.481 133.662 203.928 133.461 204.31 133.164C204.552 133.634 204.911 134.034 205.353 134.322C205.796 134.611 206.306 134.779 206.833 134.81C207.36 134.841 207.886 134.734 208.36 134.5C208.833 134.265 209.237 133.911 209.532 133.473C209.893 133.736 210.308 133.916 210.747 134C211.186 134.084 211.639 134.07 212.072 133.959C212.505 133.848 212.908 133.642 213.253 133.357C213.597 133.072 213.874 132.714 214.065 132.309C214.255 131.905 214.353 131.463 214.353 131.015C214.353 130.568 214.254 130.126 214.064 129.722C213.873 129.317 213.595 128.96 213.251 128.675C212.906 128.39 212.503 128.185 212.07 128.074V128.074Z" fill="#CACACA"/>
<path d="M219.67 58.5638C220.369 58.5638 220.936 57.9967 220.936 57.2972C220.936 56.5976 220.369 56.0305 219.67 56.0305C218.971 56.0305 218.404 56.5976 218.404 57.2972C218.404 57.9967 218.971 58.5638 219.67 58.5638Z" fill="#CACACA"/>
<path d="M211.568 28.1644C212.267 28.1644 212.834 27.5973 212.834 26.8977C212.834 26.1982 212.267 25.6311 211.568 25.6311C210.869 25.6311 210.302 26.1982 210.302 26.8977C210.302 27.5973 210.869 28.1644 211.568 28.1644Z" fill="#CACACA"/>
<path d="M207.264 59.577C207.963 59.577 208.53 59.0099 208.53 58.3103C208.53 57.6108 207.963 57.0437 207.264 57.0437C206.565 57.0437 205.998 57.6108 205.998 58.3103C205.998 59.0099 206.565 59.577 207.264 59.577Z" fill="#E6E6E6"/>
<path d="M208.277 58.3104C208.976 58.3104 209.543 57.7433 209.543 57.0437C209.543 56.3442 208.976 55.7771 208.277 55.7771C207.578 55.7771 207.011 56.3442 207.011 57.0437C207.011 57.7433 207.578 58.3104 208.277 58.3104Z" fill="#E6E6E6"/>
<path d="M209.036 57.0438C209.735 57.0438 210.302 56.4767 210.302 55.7771C210.302 55.0776 209.735 54.5105 209.036 54.5105C208.337 54.5105 207.77 55.0776 207.77 55.7771C207.77 56.4767 208.337 57.0438 209.036 57.0438Z" fill="#E6E6E6"/>
<path d="M205.998 67.6837C206.697 67.6837 207.264 67.1166 207.264 66.417C207.264 65.7175 206.697 65.1504 205.998 65.1504C205.299 65.1504 204.732 65.7175 204.732 66.417C204.732 67.1166 205.299 67.6837 205.998 67.6837Z" fill="#E6E6E6"/>
<path d="M224.734 81.8699C225.433 81.8699 226 81.3028 226 80.6033C226 79.9038 225.433 79.3367 224.734 79.3367C224.035 79.3367 223.468 79.9038 223.468 80.6033C223.468 81.3028 224.035 81.8699 224.734 81.8699Z" fill="#E6E6E6"/>
<path d="M197.643 82.63C198.342 82.63 198.909 82.0629 198.909 81.3633C198.909 80.6638 198.342 80.0967 197.643 80.0967C196.944 80.0967 196.377 80.6638 196.377 81.3633C196.377 82.0629 196.944 82.63 197.643 82.63Z" fill="#CACACA"/>
<path d="M199.162 43.6175C199.861 43.6175 200.428 43.0504 200.428 42.3509C200.428 41.6513 199.861 41.0842 199.162 41.0842C198.463 41.0842 197.896 41.6513 197.896 42.3509C197.896 43.0504 198.463 43.6175 199.162 43.6175Z" fill="#CACACA"/>
<path d="M204.985 66.4168C205.684 66.4168 206.251 65.8497 206.251 65.1502C206.251 64.4506 205.684 63.8835 204.985 63.8835C204.286 63.8835 203.719 64.4506 203.719 65.1502C203.719 65.8497 204.286 66.4168 204.985 66.4168Z" fill="#E6E6E6"/>
<path d="M203.719 64.3902C204.419 64.3902 204.985 63.8231 204.985 63.1236C204.985 62.424 204.419 61.8569 203.719 61.8569C203.02 61.8569 202.453 62.424 202.453 63.1236C202.453 63.8231 203.02 64.3902 203.719 64.3902Z" fill="#E6E6E6"/>
</g>
<defs>
<clipPath id="clip0">
<rect width="226" height="137" fill="white"/>
</clipPath>
</defs>
</svg>
