<svg width="41" height="55" viewBox="0 0 41 55" fill="none" xmlns="http://www.w3.org/2000/svg"><path d="M11.585 0C8.636 0 6.247 2.406 6.247 5.374v5.488c0 1.453 1.169 2.63 2.612 2.63a2.621 2.621 0 002.612-2.63v-2.63h24.305V46.31H11.47v-3.278c0-1.453-1.17-2.63-2.612-2.63a2.621 2.621 0 00-2.612 2.63v6.594c0 2.968 2.39 5.374 5.338 5.374h24.077C38.61 55 41 52.594 41 49.626V5.374C41 2.406 38.61 0 35.662 0H11.584z" fill="currentColor"/><path d="M5.353 16.583h14.182c1.3 0 2.355 1.062 2.355 2.371v14.279a2.363 2.363 0 01-2.355 2.371 2.363 2.363 0 01-2.355-2.371v-8.554L4.376 37.57l-.086.078c-.592.533-1.111 1.002-1.905 1.002A2.393 2.393 0 010 36.247c0-.746.339-1.413.87-1.854l12.979-13.067H5.353a2.363 2.363 0 01-2.355-2.372 2.363 2.363 0 012.355-2.371z" fill="currentColor"/></svg>