<svg width="46" height="61" viewBox="0 0 46 61" fill="none" xmlns="http://www.w3.org/2000/svg"><path d="M23 46.476a5.72 5.72 0 004.066-1.701 5.84 5.84 0 001.684-4.108c0-3.225-2.587-5.81-5.75-5.81a5.72 5.72 0 00-4.066 1.702 5.84 5.84 0 00-1.684 4.108 5.84 5.84 0 001.684 4.108A5.72 5.72 0 0023 46.476zm17.25-26.143a5.72 5.72 0 014.066 1.702A5.84 5.84 0 0146 26.143V55.19a5.84 5.84 0 01-1.684 4.108A5.72 5.72 0 0140.25 61H5.75a5.72 5.72 0 01-4.066-1.702A5.84 5.84 0 010 55.19V26.143c0-3.224 2.587-5.81 5.75-5.81h2.875v-5.81a14.6 14.6 0 014.21-10.27A14.3 14.3 0 0123 0c1.888 0 3.757.376 5.501 1.106 1.744.73 3.329 1.8 4.664 3.148a14.535 14.535 0 013.116 4.712 14.655 14.655 0 011.094 5.558v5.81h2.875zM23 5.81a8.58 8.58 0 00-6.099 2.552 8.76 8.76 0 00-2.526 6.162v5.81h17.25v-5.81a8.76 8.76 0 00-2.526-6.162A8.58 8.58 0 0023 5.81z" fill="currentColor"/></svg>