<svg width="94" height="99" viewBox="0 0 94 99" fill="none" xmlns="http://www.w3.org/2000/svg">
<path d="M18 14H38V19H18V14Z" fill="#005243"/>
<path d="M18 24H38V29H18V24Z" fill="#005243"/>
<path d="M18 34H51V39H18V34Z" fill="#005243"/>
<path d="M18 44H51V49H18V44Z" fill="#005243"/>
<path fill-rule="evenodd" clip-rule="evenodd" d="M43.497 71.9565H13.2609C10.9077 71.9565 9 70.0489 9 67.6956V9.26087C9 6.90766 10.9077 5 13.2609 5H46.477L65 23.3848V28.5H66.8413L73.0081 38.5913L72.4852 65.7825L72.457 65.8026L82.3138 79.0507L58.6979 96.6212L52.2754 87.9888C50.549 85.6684 50.2679 82.7195 51.2739 80.2195L43.497 71.9565ZM12.6522 9.26087C12.6522 8.9247 12.9247 8.65217 13.2609 8.65217H43.8985V25.9713H61.3478V28.5H57.5324C54.8119 28.5 53.1315 31.4679 54.5312 33.8007L55.466 35.3587C56.8214 37.6178 59.2627 39 61.8971 39H62.5V43.7574C62.5 44.1765 62.3386 44.4828 62.1304 44.6496C61.8902 44.842 61.6154 45.0493 61.3185 45.2732L61.3177 45.2739C60.2904 46.0488 58.9987 47.0232 57.9605 48.2683C56.5324 49.9807 55.5 52.2463 55.5 55.5C55.5001 59.7758 56.5761 62.9215 58.0951 65.4072C58.7608 66.4965 59.5093 67.4516 60.2631 68.3043H13.2609C12.9247 68.3043 12.6522 68.0318 12.6522 67.6956V9.26087ZM64.6454 67.6956H63.8127C62.6804 66.5532 61.5778 65.3529 60.655 63.8428C59.424 61.8285 58.5001 59.2242 58.5 55.5C58.5 52.969 59.2728 51.3788 60.2645 50.1896C61.06 49.2356 61.9602 48.5547 62.9325 47.8192C63.2814 47.5553 63.6397 47.2843 64.0057 46.9912C65.0395 46.1633 65.5 44.9295 65.5 43.7574V36H61.8971C60.3165 36 58.8517 35.1707 58.0384 33.8152L57.1036 32.2572C56.9037 31.924 57.1437 31.5 57.5324 31.5H65.1588L69.9919 39.4087L69.5148 64.2175L64.6454 67.6956ZM58.7419 22.3191L47.5507 11.2114V22.3191H58.7419ZM56.0076 79.6031L70.397 68.8973L77.4165 78.3319L59.4168 91.7239L55.0834 85.8996C53.5999 83.9057 54.0137 81.0866 56.0076 79.6031ZM49.0502 72.75L53.2093 77.1691L59.1881 72.75H49.0502Z" fill="#005243"/>
</svg>
